<?xml version="1.0" encoding="utf-8"?>
<!-- Generator: Adobe Illustrator 17.1.0, SVG Export Plug-In . SVG Version: 6.00 Build 0)  -->
<!DOCTYPE svg PUBLIC "-//W3C//DTD SVG 1.1//EN" "http://www.w3.org/Graphics/SVG/1.1/DTD/svg11.dtd">
<svg version="1.1" xmlns="http://www.w3.org/2000/svg" xmlns:xlink="http://www.w3.org/1999/xlink" x="0px" y="0px"
	 viewBox="0 0 402.1 81.2" enable-background="new 0 0 402.1 81.2" xml:space="preserve">
<g id="Full_Logo">
</g>
<g id="Text_Only">
	<g>
		<defs>
			<rect id="SVGID_77_" x="-0.3" y="-60.2" width="405" height="149"/>
		</defs>
		<defs>
			<path id="SVGID_78_" d="M18.4,24.9c-2.6,0.5-4.5,1.9-5.6,4.3c-1.1,2.3-1.3,5.3-0.5,9c1.5,7.5,5.1,10.7,11,9.6
				c1.8-0.3,3.5-0.9,5-1.7c1.6-0.8,3.2-1.7,4.7-2.6c0.6,3.6,0.9,5.4,1.6,9c-3.1,2-6.7,3.4-10.9,4.2c-6,1.1-10.9,0.3-14.8-2.5
				C5,51.4,2.4,46.8,1,40.3c-0.8-4-0.8-7.8,0.2-11.2c1-3.4,2.8-6.2,5.5-8.5c2.7-2.2,6.1-3.8,10.2-4.5c4.5-0.8,8.9-0.7,13.3,0.5
				c-0.8,3.6-1.2,5.4-2,9c-1.6-0.4-3.3-0.7-4.9-0.9C21.8,24.5,20.1,24.5,18.4,24.9"/>
		</defs>
		<clipPath id="SVGID_3_">
			<use xlink:href="#SVGID_77_"  overflow="visible"/>
		</clipPath>
		<clipPath id="SVGID_4_" clip-path="url(#SVGID_3_)">
			<use xlink:href="#SVGID_78_"  overflow="visible"/>
		</clipPath>
		<path clip-path="url(#SVGID_4_)" fill-rule="evenodd" clip-rule="evenodd" d="M-4.6,10.6h44.2v51.5H-4.6V10.6z M-4.6,10.6"/>
	</g>
	<g>
		<defs>
			<rect id="SVGID_81_" x="-0.3" y="-60.2" width="405" height="149"/>
		</defs>
		<defs>
			<path id="SVGID_82_" d="M68,48.9c-1.2-2.9-1.8-4.3-3-7.1c-5.2,0.7-7.9,1.1-13.1,1.9c-0.4,3.1-0.5,4.6-0.9,7.7
				c-4.7,0.7-7.1,1.1-11.8,1.9c2.1-13.9,4.4-27.9,6.8-41.7c6-0.9,9-1.4,15-2.2c6.4,12.6,12.7,25.2,18.8,38
				C75.1,48,72.7,48.3,68,48.9L68,48.9L68,48.9z M61.5,33.3c-1.1-2.5-1.6-3.7-2.7-6.2c-0.6-1.4-1.4-3.2-2.3-5.4
				c-0.9-2.2-1.9-4.7-1.9-4.7c0,0-0.1,2.5-0.3,4.7c-0.2,2.2-0.7,6.5-1.4,12.9C56.3,34.1,58,33.8,61.5,33.3L61.5,33.3L61.5,33.3z
				 M61.5,33.3"/>
		</defs>
		<defs>
			<rect id="SVGID_83_" x="-0.3" y="-703.2" width="612" height="792"/>
		</defs>
		<clipPath id="SVGID_8_">
			<use xlink:href="#SVGID_81_"  overflow="visible"/>
		</clipPath>
		<clipPath id="SVGID_9_" clip-path="url(#SVGID_8_)">
			<use xlink:href="#SVGID_82_"  overflow="visible"/>
		</clipPath>
		<clipPath id="SVGID_10_" clip-path="url(#SVGID_9_)">
			<use xlink:href="#SVGID_83_"  overflow="visible"/>
		</clipPath>
		<path clip-path="url(#SVGID_10_)" fill-rule="evenodd" clip-rule="evenodd" d="M34.2,4.4h50.7v53.9H34.2V4.4z M34.2,4.4"/>
	</g>
	<g>
		<defs>
			<rect id="SVGID_87_" x="-0.3" y="-60.2" width="405" height="149"/>
		</defs>
		<defs>
			<path id="SVGID_88_" d="M119.3,43.2c-4.9,0.4-7.4,0.6-12.3,1.1c-3.8-5.8-5.7-8.7-9.5-14.4c-1.2,0.9-1.8,1.3-3.1,2.2
				c0.6,5.3,0.9,8,1.4,13.3c-4.4,0.5-6.5,0.7-10.9,1.2c-1.6-13.2-3.2-26.4-4.8-39.7c4.5-0.5,6.8-0.8,11.3-1.3
				c0.8,6.9,1.1,10.3,1.9,17.2c0.4-1.1,1.4-2.9,2.9-5.4c3-5.2,4.5-7.8,7.5-13.1c4.9-0.5,7.4-0.7,12.4-1.1c-4.7,7.6-7,11.4-11.5,19
				C110.6,30.7,113.5,34.9,119.3,43.2"/>
		</defs>
		<clipPath id="SVGID_13_">
			<use xlink:href="#SVGID_87_"  overflow="visible"/>
		</clipPath>
		<clipPath id="SVGID_14_" clip-path="url(#SVGID_13_)">
			<use xlink:href="#SVGID_88_"  overflow="visible"/>
		</clipPath>
		<path clip-path="url(#SVGID_14_)" fill-rule="evenodd" clip-rule="evenodd" d="M75.2-1.6h49.1v53.3H75.2V-1.6z M75.2-1.6"/>
	</g>
	<g>
		<defs>
			<rect id="SVGID_91_" x="-0.3" y="-60.2" width="405" height="149"/>
		</defs>
		<defs>
			<path id="SVGID_92_" d="M148.3,41.3c-9.6,0.5-14.3,0.8-23.9,1.6c-1-13.3-2.1-26.5-3.1-39.8c10-0.8,14.9-1.1,24.9-1.6
				c0.2,3.5,0.3,5.2,0.5,8.6c-5.4,0.3-8.1,0.4-13.5,0.8c0.2,2.5,0.3,3.8,0.4,6.3c4.9-0.3,7.4-0.5,12.4-0.8c0.2,3.5,0.3,5.2,0.5,8.6
				c-4.9,0.3-7.4,0.4-12.3,0.7c0.2,3,0.3,4.5,0.5,7.5c5.3-0.4,7.9-0.5,13.1-0.8C148,36,148.1,37.7,148.3,41.3"/>
		</defs>
		<clipPath id="SVGID_17_">
			<use xlink:href="#SVGID_91_"  overflow="visible"/>
		</clipPath>
		<clipPath id="SVGID_18_" clip-path="url(#SVGID_17_)">
			<use xlink:href="#SVGID_92_"  overflow="visible"/>
		</clipPath>
		<path clip-path="url(#SVGID_18_)" fill-rule="evenodd" clip-rule="evenodd" d="M116.3-3.6h37v51.5h-37V-3.6z M116.3-3.6"/>
	</g>
	<g>
		<defs>
			<rect id="SVGID_95_" x="-0.3" y="-60.2" width="405" height="149"/>
		</defs>
		<defs>
			<path id="SVGID_96_" d="M169.8,15.2c2.7-6,4-9,6.8-15c4.9-0.1,7.4-0.2,12.3-0.2c-5.4,9.8-8.1,14.7-13.2,24.6
				c0.2,6.2,0.2,9.4,0.4,15.6c-4.4,0.1-6.6,0.2-11,0.3c-0.2-6.1-0.3-9.2-0.6-15.3c-5.7-9.7-8.7-14.5-14.7-24.1
				c4.9-0.2,7.4-0.4,12.3-0.5C165.2,6.5,166.7,9.4,169.8,15.2"/>
		</defs>
		<clipPath id="SVGID_21_">
			<use xlink:href="#SVGID_95_"  overflow="visible"/>
		</clipPath>
		<clipPath id="SVGID_22_" clip-path="url(#SVGID_21_)">
			<use xlink:href="#SVGID_96_"  overflow="visible"/>
		</clipPath>
		<path clip-path="url(#SVGID_22_)" fill-rule="evenodd" clip-rule="evenodd" d="M144.8-5h49.1v50.5h-49.1V-5z M144.8-5"/>
	</g>
	<g>
		<defs>
			<rect id="SVGID_99_" x="-0.3" y="-60.2" width="405" height="149"/>
		</defs>
		<defs>
			<path id="SVGID_100_" d="M210.3,0c5.9,0.1,8.8,0.1,14.6,0.3c5.7,0.1,9.9,1.1,12.6,2.8c2.7,1.7,4,4.3,3.8,7.7
				c-0.1,2.2-0.8,4.1-2,5.7c-1.3,1.5-2.9,2.5-4.8,2.9c0,0.1,0,0.2,0,0.3c2.5,0.7,4.3,1.9,5.4,3.5c1.1,1.6,1.6,3.6,1.5,6
				c-0.2,3.6-1.7,6.4-4.5,8.4c-2.8,2-6.6,2.9-11.4,2.8c-6.3-0.2-9.4-0.2-15.7-0.3C210,26.6,210.2,13.3,210.3,0L210.3,0L210.3,0z
				 M221.3,15.5c1.3,0,2,0,3.4,0.1c1.6,0,2.9-0.2,3.7-0.9s1.4-1.5,1.4-2.8c0.1-2.2-1.7-3.4-5.2-3.5c-1.3,0-1.9,0-3.2-0.1L221.3,15.5
				L221.3,15.5L221.3,15.5z M221.1,23.4c-0.1,3.4-0.1,5-0.2,8.4c1.5,0,2.3,0.1,3.9,0.1c3.4,0.1,5.2-1.3,5.3-4.1
				c0-1.3-0.4-2.4-1.3-3.1c-0.9-0.7-2.2-1.1-4-1.2C223.3,23.5,222.6,23.4,221.1,23.4L221.1,23.4L221.1,23.4z M221.1,23.4"/>
		</defs>
		<defs>
			<rect id="SVGID_101_" x="-0.3" y="-703.2" width="612" height="792"/>
		</defs>
		<clipPath id="SVGID_26_">
			<use xlink:href="#SVGID_99_"  overflow="visible"/>
		</clipPath>
		<clipPath id="SVGID_27_" clip-path="url(#SVGID_26_)">
			<use xlink:href="#SVGID_100_"  overflow="visible"/>
		</clipPath>
		<clipPath id="SVGID_28_" clip-path="url(#SVGID_27_)">
			<use xlink:href="#SVGID_101_"  overflow="visible"/>
		</clipPath>
		<path clip-path="url(#SVGID_28_)" fill-rule="evenodd" clip-rule="evenodd" d="M204.9-5h41.6v50.2h-41.6V-5z M204.9-5"/>
	</g>
	<g>
		<defs>
			<rect id="SVGID_105_" x="-0.3" y="-60.2" width="405" height="149"/>
		</defs>
		<defs>
			<path id="SVGID_106_" d="M273.4,42.7c-0.6-3-0.8-4.6-1.4-7.6c-5.3-0.4-7.9-0.6-13.2-0.9c-1,2.9-1.5,4.4-2.5,7.3
				c-4.8-0.3-7.2-0.4-12-0.6c5-13.2,10.2-26.3,15.6-39.3c6,0.4,9.1,0.6,15.1,1c3.6,13.7,7,27.3,10.2,41.1
				C280.5,43.3,278.1,43.1,273.4,42.7L273.4,42.7L273.4,42.7z M270.3,26.1c-0.5-2.7-0.8-4-1.3-6.7c-0.3-1.5-0.7-3.4-1.1-5.7
				c-0.4-2.3-0.8-5-0.8-5c0,0-0.7,2.4-1.3,4.5c-0.6,2.1-2,6.2-4.1,12.4C265.1,25.7,266.9,25.9,270.3,26.1L270.3,26.1L270.3,26.1z
				 M270.3,26.1"/>
		</defs>
		<defs>
			<rect id="SVGID_107_" x="-0.3" y="-703.2" width="612" height="792"/>
		</defs>
		<clipPath id="SVGID_32_">
			<use xlink:href="#SVGID_105_"  overflow="visible"/>
		</clipPath>
		<clipPath id="SVGID_33_" clip-path="url(#SVGID_32_)">
			<use xlink:href="#SVGID_106_"  overflow="visible"/>
		</clipPath>
		<clipPath id="SVGID_34_" clip-path="url(#SVGID_33_)">
			<use xlink:href="#SVGID_107_"  overflow="visible"/>
		</clipPath>
		<path clip-path="url(#SVGID_34_)" fill-rule="evenodd" clip-rule="evenodd" d="M239.3-3.4h50.9v52.1h-50.9V-3.4z M239.3-3.4"/>
	</g>
	<g>
		<defs>
			<rect id="SVGID_111_" x="-0.3" y="-60.2" width="405" height="149"/>
		</defs>
		<defs>
			<path id="SVGID_112_" d="M324.7,48.1c-4.9-0.6-7.3-0.9-12.2-1.5c-2.4-6.4-3.7-9.7-6.3-16.1c-1.4,0.6-2.1,0.9-3.5,1.5
				c-0.6,5.3-0.9,8-1.4,13.3c-4.4-0.5-6.5-0.7-10.9-1.1c1.3-13.3,2.5-26.5,3.8-39.8c4.5,0.4,6.8,0.7,11.4,1.1
				c-0.7,6.9-1.1,10.4-1.8,17.3c0.7-1,2-2.6,4-4.7c4-4.5,6-6.7,10.1-11.2c4.9,0.6,7.4,0.9,12.3,1.5c-6.2,6.4-9.3,9.6-15.3,16.1
				C318.9,34,320.9,38.7,324.7,48.1"/>
		</defs>
		<clipPath id="SVGID_37_">
			<use xlink:href="#SVGID_111_"  overflow="visible"/>
		</clipPath>
		<clipPath id="SVGID_38_" clip-path="url(#SVGID_37_)">
			<use xlink:href="#SVGID_112_"  overflow="visible"/>
		</clipPath>
		<path clip-path="url(#SVGID_38_)" fill-rule="evenodd" clip-rule="evenodd" d="M285.4-0.6h49.7v53.6h-49.7V-0.6z M285.4-0.6"/>
	</g>
	<g>
		<defs>
			<rect id="SVGID_115_" x="-0.3" y="-60.2" width="405" height="149"/>
		</defs>
		<defs>
			<path id="SVGID_116_" d="M353.5,52.3c-9.5-1.5-14.2-2.2-23.7-3.5c1.8-13.2,3.6-26.4,5.4-39.6c9.9,1.4,14.9,2.1,24.7,3.7
				c-0.6,3.4-0.8,5.1-1.4,8.5c-5.3-0.9-8-1.3-13.3-2.1c-0.4,2.5-0.6,3.7-0.9,6.2c4.9,0.7,7.4,1.1,12.3,1.9c-0.6,3.4-0.8,5.1-1.4,8.5
				c-4.9-0.8-7.3-1.2-12.2-1.9c-0.4,3-0.7,4.5-1.1,7.5c5.2,0.8,7.8,1.2,13,2C354.4,47.1,354.1,48.8,353.5,52.3"/>
		</defs>
		<clipPath id="SVGID_41_">
			<use xlink:href="#SVGID_115_"  overflow="visible"/>
		</clipPath>
		<clipPath id="SVGID_42_" clip-path="url(#SVGID_41_)">
			<use xlink:href="#SVGID_116_"  overflow="visible"/>
		</clipPath>
		<path clip-path="url(#SVGID_42_)" fill-rule="evenodd" clip-rule="evenodd" d="M324.8,4.2H365v53.1h-40.2V4.2z M324.8,4.2"/>
	</g>
	<g>
		<defs>
			<rect id="SVGID_119_" x="-0.3" y="-60.2" width="405" height="149"/>
		</defs>
		<defs>
			<path id="SVGID_120_" d="M380.1,31.4c3.9-5.3,5.9-7.9,9.9-13.2c4.8,0.9,7.3,1.4,12.1,2.4c-7.4,8.4-11.1,12.7-18.2,21.2
				c-1.2,6.1-1.8,9.2-3,15.3c-4.3-0.8-6.5-1.2-10.8-2c1.1-6,1.6-9,2.7-15c-3.6-10.7-5.4-16-9.3-26.6c4.9,0.8,7.3,1.2,12.2,2.1
				C377.6,21.9,378.4,25.1,380.1,31.4"/>
		</defs>
		<clipPath id="SVGID_45_">
			<use xlink:href="#SVGID_119_"  overflow="visible"/>
		</clipPath>
		<clipPath id="SVGID_46_" clip-path="url(#SVGID_45_)">
			<use xlink:href="#SVGID_120_"  overflow="visible"/>
		</clipPath>
		<path clip-path="url(#SVGID_46_)" fill-rule="evenodd" clip-rule="evenodd" d="M358.6,8.5h48.6v53.7h-48.6V8.5z M358.6,8.5"/>
	</g>
	<path d="M191.2,67.6c0.6,0.2,1.3,0.5,1.9,0.8l1.4-3.6c-1.7-0.8-3.5-1.2-5.3-1.2c-1.7,0-3.2,0.4-4.4,1.1c-1.3,0.7-2.2,1.8-2.9,3.1
		c-0.7,1.3-1,2.9-1,4.7c0,2.8,0.7,5,2.1,6.5c1.4,1.5,3.4,2.2,5.9,2.2c1.8,0,3.4-0.3,4.9-0.9v-3.9c-0.7,0.3-1.4,0.6-2.1,0.8
		c-0.7,0.2-1.4,0.3-2.2,0.3c-2.5,0-3.8-1.6-3.8-4.9c0-1.6,0.3-2.8,0.9-3.7c0.6-0.9,1.5-1.4,2.6-1.4
		C189.9,67.3,190.5,67.4,191.2,67.6L191.2,67.6z M208.7,70.5c-0.5-1-1.3-1.8-2.3-2.4c-1-0.6-2.2-0.8-3.5-0.8c-2.1,0-3.7,0.6-4.9,1.8
		c-1.2,1.2-1.8,2.9-1.8,5c0,2.1,0.6,3.8,1.8,5c1.2,1.2,2.8,1.9,4.8,1.9c2.1,0,3.7-0.6,4.9-1.8c1.2-1.2,1.8-2.9,1.8-5.1
		C209.5,72.8,209.2,71.6,208.7,70.5L208.7,70.5z M201.4,71.6c0.3-0.6,0.8-0.9,1.5-0.9c0.7,0,1.2,0.3,1.5,0.9
		c0.3,0.6,0.4,1.4,0.4,2.6c0,1.1-0.1,2-0.4,2.6s-0.8,0.9-1.5,0.9c-0.7,0-1.2-0.3-1.5-0.9s-0.5-1.5-0.5-2.6
		C200.9,73,201,72.2,201.4,71.6L201.4,71.6z"/>
	<path fill="none" stroke="#000000" stroke-width="3" stroke-linecap="square" stroke-miterlimit="10" d="M277.7,72.8h-57.7
		 M169.7,72.8h-57.7"/>
</g>
<g id="Cake_Only_Lrg">
	<g>
		<g>
			<defs>
				<rect id="SVGID_123_" x="-17.9" y="117.8" width="25" height="40"/>
			</defs>
			<defs>
				<path id="SVGID_124_" d="M-14.9,132.8v-4c0-1.1,0.9-2,2-2h15c1.1,0,2,0.9,2,2v4v3h-19V132.8L-14.9,132.8z M-14.9,132.8"/>
			</defs>
			<defs>
				<rect id="SVGID_125_" x="-17.9" y="-634.2" width="612" height="792"/>
			</defs>
			<clipPath id="SVGID_50_">
				<use xlink:href="#SVGID_123_"  overflow="visible"/>
			</clipPath>
			<clipPath id="SVGID_51_" clip-path="url(#SVGID_50_)">
				<use xlink:href="#SVGID_124_"  overflow="visible"/>
			</clipPath>
			<clipPath id="SVGID_52_" clip-path="url(#SVGID_51_)">
				<use xlink:href="#SVGID_125_"  overflow="visible"/>
			</clipPath>
		</g>
		<g>
			<defs>
				<rect id="SVGID_129_" x="-17.9" y="117.8" width="25" height="40"/>
			</defs>
			<defs>
				<path id="SVGID_130_" d="M-11.9,120.3v-0.5c0-1.1,0.9-2,2-2h9c1.1,0,2,0.9,2,2v0.5v4.5h-13V120.3L-11.9,120.3z M-11.9,120.3"/>
			</defs>
			<defs>
				<rect id="SVGID_131_" x="-17.9" y="-634.2" width="612" height="792"/>
			</defs>
			<clipPath id="SVGID_56_">
				<use xlink:href="#SVGID_129_"  overflow="visible"/>
			</clipPath>
			<clipPath id="SVGID_57_" clip-path="url(#SVGID_56_)">
				<use xlink:href="#SVGID_130_"  overflow="visible"/>
			</clipPath>
			<clipPath id="SVGID_58_" clip-path="url(#SVGID_57_)">
				<use xlink:href="#SVGID_131_"  overflow="visible"/>
			</clipPath>
		</g>
		<g>
			<defs>
				<rect id="SVGID_135_" x="-17.9" y="117.8" width="25" height="40"/>
			</defs>
			<defs>
				<path id="SVGID_136_" d="M-18,144.8v-5c0-1.1,0.9-2,2-2h21c1.1,0,2,0.9,2,2v5v4h-25V144.8L-18,144.8z M-18,144.8"/>
			</defs>
			<defs>
				<rect id="SVGID_137_" x="-17.9" y="-634.2" width="612" height="792"/>
			</defs>
			<clipPath id="SVGID_62_">
				<use xlink:href="#SVGID_135_"  overflow="visible"/>
			</clipPath>
			<clipPath id="SVGID_63_" clip-path="url(#SVGID_62_)">
				<use xlink:href="#SVGID_136_"  overflow="visible"/>
			</clipPath>
			<clipPath id="SVGID_64_" clip-path="url(#SVGID_63_)">
				<use xlink:href="#SVGID_137_"  overflow="visible"/>
			</clipPath>
		</g>
		<g>
			<defs>
				<rect id="SVGID_141_" x="-17.9" y="117.8" width="25" height="40"/>
			</defs>
			<defs>
				<path id="SVGID_142_" d="M-6.9,148.8v7h3v-7H-6.9L-6.9,148.8z M-6.9,148.8"/>
			</defs>
			<defs>
				<rect id="SVGID_143_" x="-17.9" y="-634.2" width="612" height="792"/>
			</defs>
			<clipPath id="SVGID_68_">
				<use xlink:href="#SVGID_141_"  overflow="visible"/>
			</clipPath>
			<clipPath id="SVGID_69_" clip-path="url(#SVGID_68_)">
				<use xlink:href="#SVGID_142_"  overflow="visible"/>
			</clipPath>
			<clipPath id="SVGID_70_" clip-path="url(#SVGID_69_)">
				<use xlink:href="#SVGID_143_"  overflow="visible"/>
			</clipPath>
		</g>
		<g>
			<defs>
				<rect id="SVGID_147_" x="-17.9" y="117.8" width="25" height="40"/>
			</defs>
			<defs>
				<path id="SVGID_148_" d="M-10.9,154.8v3h11v-3H-10.9L-10.9,154.8z M-10.9,154.8"/>
			</defs>
			<defs>
				<rect id="SVGID_149_" x="-17.9" y="-634.2" width="612" height="792"/>
			</defs>
			<clipPath id="SVGID_74_">
				<use xlink:href="#SVGID_147_"  overflow="visible"/>
			</clipPath>
			<clipPath id="SVGID_75_" clip-path="url(#SVGID_74_)">
				<use xlink:href="#SVGID_148_"  overflow="visible"/>
			</clipPath>
			<clipPath id="SVGID_76_" clip-path="url(#SVGID_75_)">
				<use xlink:href="#SVGID_149_"  overflow="visible"/>
			</clipPath>
		</g>
	</g>
</g>
<g id="Cake_Only_Sm">
	<g>
		<g>
			<defs>
				<rect id="SVGID_153_" x="27.8" y="115.8" width="16" height="25"/>
			</defs>
			<defs>
				<path id="SVGID_154_" d="M29.8,124.3v2.5h12v-2.5v-1.5c0-0.6-0.5-1-1-1h-10c-0.6,0-1,0.4-1,1V124.3L29.8,124.3z M29.8,124.3"/>
			</defs>
			<defs>
				<rect id="SVGID_155_" x="27.8" y="-651.2" width="612" height="792"/>
			</defs>
			<clipPath id="SVGID_79_">
				<use xlink:href="#SVGID_153_"  overflow="visible"/>
			</clipPath>
			<clipPath id="SVGID_80_" clip-path="url(#SVGID_79_)">
				<use xlink:href="#SVGID_154_"  overflow="visible"/>
			</clipPath>
			<clipPath id="SVGID_84_" clip-path="url(#SVGID_80_)">
				<use xlink:href="#SVGID_155_"  overflow="visible"/>
			</clipPath>
		</g>
		<g>
			<defs>
				<rect id="SVGID_159_" x="27.8" y="115.8" width="16" height="25"/>
			</defs>
			<defs>
				<path id="SVGID_160_" d="M27.8,132.3v-2.5c0-0.5,0.4-1,1-1h14c0.6,0,1,0.4,1,1v2.5v2.5h-16V132.3L27.8,132.3z M27.8,132.3"/>
			</defs>
			<defs>
				<rect id="SVGID_161_" x="27.8" y="-651.2" width="612" height="792"/>
			</defs>
			<clipPath id="SVGID_85_">
				<use xlink:href="#SVGID_159_"  overflow="visible"/>
			</clipPath>
			<clipPath id="SVGID_86_" clip-path="url(#SVGID_85_)">
				<use xlink:href="#SVGID_160_"  overflow="visible"/>
			</clipPath>
			<clipPath id="SVGID_89_" clip-path="url(#SVGID_86_)">
				<use xlink:href="#SVGID_161_"  overflow="visible"/>
			</clipPath>
		</g>
		<g>
			<defs>
				<rect id="SVGID_165_" x="27.8" y="115.8" width="16" height="25"/>
			</defs>
			<defs>
				<path id="SVGID_166_" d="M31.8,117.3v2.5h8v-2.5v-0.5c0-0.6-0.5-1-1-1h-6c-0.6,0-1,0.4-1,1V117.3L31.8,117.3z M31.8,117.3"/>
			</defs>
			<defs>
				<rect id="SVGID_167_" x="27.8" y="-651.2" width="612" height="792"/>
			</defs>
			<clipPath id="SVGID_90_">
				<use xlink:href="#SVGID_165_"  overflow="visible"/>
			</clipPath>
			<clipPath id="SVGID_93_" clip-path="url(#SVGID_90_)">
				<use xlink:href="#SVGID_166_"  overflow="visible"/>
			</clipPath>
			<clipPath id="SVGID_94_" clip-path="url(#SVGID_93_)">
				<use xlink:href="#SVGID_167_"  overflow="visible"/>
			</clipPath>
		</g>
		<g>
			<defs>
				<rect id="SVGID_171_" x="27.8" y="115.8" width="16" height="25"/>
			</defs>
			<defs>
				<path id="SVGID_172_" d="M34.6,134.8v4.3h1.8v-4.3H34.6L34.6,134.8z M34.6,134.8"/>
			</defs>
			<defs>
				<rect id="SVGID_173_" x="27.8" y="-651.2" width="612" height="792"/>
			</defs>
			<clipPath id="SVGID_97_">
				<use xlink:href="#SVGID_171_"  overflow="visible"/>
			</clipPath>
			<clipPath id="SVGID_98_" clip-path="url(#SVGID_97_)">
				<use xlink:href="#SVGID_172_"  overflow="visible"/>
			</clipPath>
			<clipPath id="SVGID_102_" clip-path="url(#SVGID_98_)">
				<use xlink:href="#SVGID_173_"  overflow="visible"/>
			</clipPath>
		</g>
		<g>
			<defs>
				<rect id="SVGID_177_" x="27.8" y="115.8" width="16" height="25"/>
			</defs>
			<defs>
				<path id="SVGID_178_" d="M32.1,138.5v1.8h6.7v-1.8H32.1L32.1,138.5z M32.1,138.5"/>
			</defs>
			<defs>
				<rect id="SVGID_179_" x="27.8" y="-651.2" width="612" height="792"/>
			</defs>
			<clipPath id="SVGID_103_">
				<use xlink:href="#SVGID_177_"  overflow="visible"/>
			</clipPath>
			<clipPath id="SVGID_104_" clip-path="url(#SVGID_103_)">
				<use xlink:href="#SVGID_178_"  overflow="visible"/>
			</clipPath>
			<clipPath id="SVGID_108_" clip-path="url(#SVGID_104_)">
				<use xlink:href="#SVGID_179_"  overflow="visible"/>
			</clipPath>
		</g>
	</g>
</g>
<g id="Spacers" display="none">
	<rect x="183.1" y="77.4" display="inline" fill="#993333" width="10.2" height="24.8"/>
	<rect x="401.5" y="16" display="inline" fill="#993333" width="24.8" height="10.2"/>
</g>
</svg>
