<?xml version="1.0" encoding="UTF-8" standalone="no"?>
<svg width="249px" height="57px" viewBox="0 0 249 57" version="1.1" xmlns="http://www.w3.org/2000/svg" xmlns:xlink="http://www.w3.org/1999/xlink" xmlns:sketch="http://www.bohemiancoding.com/sketch/ns">
    <!-- Generator: Sketch 3.0.2 (7799) - http://www.bohemiancoding.com/sketch -->
    <title>logo-slim</title>
    <description>Created with Sketch.</description>
    <defs></defs>
    <g id="Page-1" stroke="none" stroke-width="1" fill="none" fill-rule="evenodd" sketch:type="MSPage">
        <g id="Text-only" sketch:type="MSLayerGroup" transform="translate(1.000000, 1.139273)">
            <g id="Text" fill="#000000" sketch:type="MSShapeGroup">
                <path d="M10.868109,15.3240918 C9.24845267,15.6243934 8.10568023,16.497815 7.44651778,17.9363129 C6.78735534,19.3748108 6.67973698,21.2067842 7.1142461,23.4295517 C8.01824031,28.0507095 10.2661188,30.0040101 13.8659529,29.3390567 C14.9535709,29.1379619 15.9806536,28.7987821 16.9492188,28.3188359 C17.9171114,27.83956 18.8829862,27.3012964 19.8461705,26.7033746 C20.2309061,28.9060326 20.4232739,30.0073617 20.8086822,32.2100197 C18.9226705,33.4547963 16.7037144,34.3094491 14.1370166,34.786714 C10.4598318,35.4704363 7.44382732,34.9757431 5.05133669,33.2718001 C2.65884607,31.5678571 1.0358267,28.7438162 0.211201028,24.7782273 C-0.304021862,22.2980585 -0.272408969,20.0183141 0.320164616,17.9383238 C0.912738201,15.8596742 2.03465959,14.1269076 3.68660139,12.7500788 C5.33854319,11.3739202 7.42835718,10.446203 9.94326369,9.98033346 C12.6895497,9.47223401 15.4217107,9.57010013 18.1182232,10.2725912 C17.6325954,12.4685461 17.3931445,13.5665235 16.9223142,15.7631487 C15.9194457,15.5084287 14.9266663,15.3220809 13.9439762,15.2041053 C12.9626313,15.0861297 11.9362212,15.1263486 10.868109,15.3240918" id="Fill-1"></path>
                <path d="M41.2467537,30.0596463 C40.5109131,28.3094515 40.1416476,27.4346892 39.3984084,25.6871757 C36.1880182,26.1369576 34.5845047,26.3729088 31.3788228,26.8662613 C31.160223,28.7558819 31.0532773,29.700357 30.8427489,31.5899775 C27.9377258,32.0437814 26.4855506,32.2797326 23.5852358,32.7697335 C24.8706026,24.2299089 26.2676234,15.7068422 27.7756257,7.20321468 C31.4521378,6.63344616 33.2917391,6.36263854 36.9749775,5.84917656 C40.9178451,13.5497656 44.7584752,21.3026394 48.4955227,29.1051165 C45.5938627,29.469098 44.144378,29.6594677 41.2467537,30.0596463 L41.2467537,30.0596463 Z M37.2433507,20.5150182 C36.5855335,18.9860276 36.2552797,18.2218675 35.5920816,16.6942175 C35.2120542,15.8476085 34.7385334,14.7496311 34.170174,13.4002852 C33.6018145,12.0509393 33.0078957,10.4917845 33.0078957,10.4917845 C32.9984791,10.4931251 32.9191106,12.0274782 32.8074565,13.3640881 C32.6951299,14.7000277 32.3978342,17.3437536 31.9438192,21.2945956 C34.0625556,20.9735142 35.1225965,20.8173306 37.2433507,20.5150182 L37.2433507,20.5150182 Z" id="Fill-2"></path>
                <path d="M72.6423919,26.5820474 C69.6371492,26.8334159 68.1352005,26.9688197 65.1333209,27.2590665 C62.8249071,23.7224798 61.6559027,21.9602193 59.2869536,18.445753 C58.5363155,18.9960823 58.1623417,19.2715822 57.4150668,19.8239225 C57.7702074,23.0776359 57.9477776,24.7051629 58.3029182,27.9588763 C55.6326377,28.2484527 54.2981701,28.4006144 51.63058,28.7210254 C50.6525982,20.6236093 49.675289,12.5268636 48.6973071,4.43011779 C51.4765512,4.09697079 52.8668459,3.93810592 55.6487805,3.63646377 C56.1095216,7.86213521 56.3402284,9.97497093 56.8016421,14.2006424 C57.0740511,13.5095467 57.6558629,12.3968223 58.5558214,10.8664911 C60.3665003,7.66171076 61.285292,6.06233701 63.14978,2.87029269 C66.1799094,2.57937559 67.6953105,2.44330146 70.7281303,2.19059237 C67.8594284,6.82984872 66.4543363,9.15785585 63.7046872,13.8292874 C67.3489139,18.9035787 69.1367238,21.4548011 72.6423919,26.5820474" id="Fill-3"></path>
                <path d="M90.4236351,25.3640834 C84.5658333,25.6764506 81.6379414,25.8688313 75.7875384,26.3273274 C75.1465365,18.1970658 74.5055347,10.0668042 73.8638602,1.93654264 C79.959095,1.45927772 83.0094028,1.25885326 89.1120364,0.933079735 C89.2257083,3.0519483 89.2828805,4.11171774 89.3965524,6.23058631 C86.1000676,6.40620907 84.4521615,6.50541583 81.1570218,6.72594976 C81.2606045,8.2623138 81.3123959,9.02982551 81.4159785,10.5661896 C84.4474532,10.3630838 85.9635268,10.2712506 88.9970192,10.1063528 C89.112709,12.2252214 89.1705539,13.2849909 89.2869162,15.4038594 C86.2803283,15.5667462 84.777707,15.6579091 81.7724643,15.8590039 C81.8968981,17.7023726 81.9594512,18.624057 82.0832123,20.4674257 C85.3030191,20.2522543 86.9132588,20.1550585 90.1344108,19.9834577 C90.2501005,22.135842 90.3079454,23.211699 90.4236351,25.3640834" id="Fill-4"></path>
                <path d="M103.571235,9.40721336 C105.20838,5.7285197 106.039732,3.89118381 107.72934,0.223885511 C110.741309,0.154842973 112.247293,0.129370969 115.259262,0.0971958057 C111.93789,6.09719344 110.318906,9.10892279 107.163671,15.1518206 C107.257837,18.9726213 107.30492,20.8830216 107.399086,24.7044926 C104.710645,24.7701835 103.366761,24.8104025 100.679665,24.906928 C100.544469,21.1672355 100.476535,19.2977245 100.342012,15.5587024 C96.8235644,9.63579109 95.0229747,6.68774175 91.3383912,0.818455716 C94.362467,0.668304954 95.874505,0.602613996 98.8992534,0.490000924 C100.794009,4.04937836 101.728944,5.83308898 103.571235,9.40721336" id="Fill-5"></path>
                <path d="M128.40888,0.0978661216 C131.997952,0.136074128 133.793161,0.168919607 137.381561,0.26008257 C140.876467,0.348564269 143.455272,0.935760999 145.107886,1.98681633 C146.759828,3.03720135 147.535353,4.61043277 147.446567,6.69444491 C147.388723,8.06524093 146.973719,9.22019523 146.207611,10.1606484 C145.44083,11.1011016 144.461503,11.6882984 143.26694,11.9242496 C143.264249,11.9912812 143.263576,12.024797 143.260886,12.0911582 C144.81059,12.548984 145.915696,13.2635407 146.575531,14.2287956 C147.235366,15.1940505 147.530644,16.4240802 147.466073,17.9175441 C147.369889,20.1356194 146.445044,21.8442546 144.707008,23.0555154 C142.969644,24.2667763 140.657194,24.8224682 137.753516,24.7440412 C133.910196,24.6401422 131.987863,24.6032749 128.14387,24.5623856 C128.232655,16.4073223 128.320767,8.25292938 128.40888,0.0978661216 L128.40888,0.0978661216 Z M135.149825,9.59758308 C135.97445,9.61568161 136.386763,9.62573635 137.210716,9.64651614 C138.192061,9.67131783 138.956824,9.49837633 139.505678,9.12366974 C140.054532,8.74896315 140.341738,8.17718368 140.36528,7.40766103 C140.407654,6.03686501 139.347613,5.31426447 137.183812,5.25996888 C136.40896,5.24052972 136.022206,5.2311453 135.247354,5.21371708 L135.149825,9.59758308 L135.149825,9.59758308 Z M135.042206,14.4325717 C134.996469,16.4870899 134.9736,17.5146842 134.928535,19.5692024 C135.875576,19.5899822 136.349097,19.6013776 137.296138,19.6261793 C139.396714,19.6804749 140.474243,18.8466019 140.529398,17.1071321 C140.554957,16.2933686 140.291965,15.6599201 139.739075,15.2074569 C139.185513,14.7556639 138.369632,14.5143502 137.293448,14.486197 C136.392817,14.4634062 135.942838,14.4526812 135.042206,14.4325717 L135.042206,14.4325717 Z" id="Fill-6"></path>
                <path d="M167.052615,26.2669989 C166.708908,24.4015098 166.535374,23.46843 166.183596,21.6029409 C162.956391,21.3609568 161.342115,21.251025 158.112219,21.0532818 C157.496777,22.85308 157.190737,23.7533143 156.582693,25.5551234 C153.654802,25.3815116 152.189847,25.3044253 149.260609,25.1676808 C152.333786,17.0964071 155.513909,9.06535225 158.797614,1.07652734 C162.502376,1.30041285 164.354084,1.42576192 168.055483,1.70528365 C170.257624,10.0668042 172.349456,18.4571484 174.330306,26.8729645 C171.419902,26.6128819 169.965036,26.4915547 167.052615,26.2669989 L167.052615,26.2669989 Z M165.186109,16.0922739 C164.871325,14.458714 164.712588,13.6422692 164.391751,12.0087094 C164.202073,11.1011016 163.974729,9.9273785 163.708374,8.48888058 C163.442019,7.04971234 163.195842,5.4000649 163.195842,5.4000649 C163.186425,5.39939459 162.782184,6.88213336 162.387359,8.16377737 C161.992534,9.44542137 161.138313,11.9658092 159.852946,15.7296329 C161.98648,15.8650368 163.053247,15.9374309 165.186109,16.0922739 L165.186109,16.0922739 Z" id="Fill-7"></path>
                <path d="M198.465741,29.5341186 C195.471933,29.1419838 193.974019,28.9549657 190.976848,28.6010389 C189.476917,24.6555595 188.710809,22.6848307 187.147652,18.7487358 C186.296795,19.1267939 185.871702,19.3164933 185.023535,19.6979031 C184.675121,22.9522868 184.500913,24.5798138 184.152499,27.8348678 C181.481546,27.5506539 180.145733,27.4159204 177.472762,27.162541 C178.248287,19.0436748 179.023812,10.9254789 179.799336,2.80661268 C182.583961,3.07071715 183.975601,3.21081317 186.758209,3.5070928 C186.305539,7.73343456 186.078868,9.8469406 185.626198,14.0732824 C186.040529,13.4552511 186.846321,12.4920071 188.052992,11.1882427 C190.507363,8.44061783 191.746992,7.07317339 194.252482,4.35102052 C197.27723,4.71030984 198.788596,4.89933893 201.809309,5.29616594 C198.010381,9.21952491 196.139166,11.1956162 192.451892,15.175952 C194.929805,20.9078233 196.13244,23.7801269 198.465741,29.5341186" id="Fill-8"></path>
                <path d="M216.13533,32.1248896 C210.328647,31.1837661 207.420933,30.7494014 201.597435,29.9537364 C202.709267,21.8737485 203.820427,13.7944309 204.932259,5.71444306 C210.998571,6.54362383 214.028701,6.99608707 220.077525,7.97675923 C219.735837,10.0714964 219.564992,11.1185299 219.223304,13.2125967 C215.955069,12.6830472 214.319943,12.4289974 211.046999,11.9443591 C210.819656,13.4666465 210.705984,14.2281253 210.47864,15.7510831 C213.489936,16.1975134 214.994575,16.4301131 218.001836,16.9147515 C217.662165,19.0094887 217.491994,20.0565221 217.152323,22.1512593 C214.171967,21.6713131 212.680781,21.4407244 209.695716,20.9983159 C209.422635,22.8255971 209.286767,23.7392377 209.013685,25.5671891 C212.211968,26.0411025 213.810101,26.2891193 217.003676,26.8066032 C216.656606,28.9341859 216.483072,29.9979772 216.13533,32.1248896" id="Fill-9"></path>
                <path d="M232.440856,19.3359325 C234.83402,16.0902629 236.043381,14.4727906 238.48699,11.2499118 C241.457257,11.8250428 242.941045,12.1219928 245.906604,12.7339912 C241.3604,17.8860392 239.126647,20.482843 234.736491,25.7139883 C234.011412,29.467087 233.6482,31.3439716 232.923121,35.0970703 C230.271001,34.5876302 228.94326,34.340954 226.287104,33.8623484 C226.954338,30.1803032 227.288628,28.3389454 227.956534,24.6569001 C225.773227,18.1213201 224.639198,14.8568816 222.284374,8.33872982 C225.279527,8.8354339 226.776095,9.09350552 229.76654,9.62707698 C230.862902,13.5088764 231.397631,15.4507815 232.440856,19.3359325" id="Fill-10"></path>
            </g>
            <g id="--CO--" transform="translate(67.990835, 33.689153)">
                <text id="Co" sketch:type="MSTextLayer" font-family="Open Sans" font-size="14.5454545" font-weight="633" fill="#000000">
                    <tspan x="41.6520433" y="16">Co</tspan>
                </text>
                <path d="M101.679988,11.0255409 L66.3235786,11.0255409" id="Line-2" stroke="#000000" stroke-width="2" stroke-linecap="square" sketch:type="MSShapeGroup"></path>
                <path d="M35.5267428,11.0255409 L0.170333443,11.0255409" id="Line-4" stroke="#000000" stroke-width="2" stroke-linecap="square" sketch:type="MSShapeGroup"></path>
            </g>
        </g>
    </g>
</svg>