<?xml version="1.0" encoding="UTF-8" standalone="no"?>
<svg width="25px" height="40px" viewBox="0 0 25 40" version="1.1" xmlns="http://www.w3.org/2000/svg" xmlns:xlink="http://www.w3.org/1999/xlink" xmlns:sketch="http://www.bohemiancoding.com/sketch/ns">
    <!-- Generator: Sketch 3.0.2 (7799) - http://www.bohemiancoding.com/sketch -->
    <title>logo_cake@2x</title>
    <description>Created with Sketch.</description>
    <defs></defs>
    <g id="Page-1" stroke="none" stroke-width="1" fill="none" fill-rule="evenodd" sketch:type="MSPage">
        <g id="Cake-only---medium" sketch:type="MSLayerGroup" fill="#000">
            <g id="Cake" sketch:type="MSShapeGroup">
                <path d="M3,14.9677074 L3,10.9995634 C3,9.9048519 3.89427625,9 4.99742191,9 L20.0025781,9 C21.1090746,9 22,9.89523501 22,10.9995634 L22,14.9677074 L22,18 L3,18 L3,14.9677074 Z" id="Middle-Tier"></path>
                <path d="M6,2.5 L6,2.0048815 C6,0.893899798 6.89666625,0 8.00276013,0 L16.9972399,0 C18.1064574,0 19,0.897616023 19,2.0048815 L19,2.5 L19,7 L6,7 L6,2.5 Z" id="Top-Tier"></path>
                <path d="M-0.0152587891,26.9910563 L-0.0152587891,22.0009116 C-0.0152587891,20.8984397 0.882381256,20 1.98967637,20 L22.9965297,20 C24.1111064,20 25.0014648,20.8958386 25.0014648,22.0009116 L25.0014648,26.9910563 L25.0014648,30.9787803 L-0.0152587891,30.9787803 L-0.0152587891,26.9910563 Z" id="Bottom-Tier"></path>
            </g>
            <g id="Cake-Stand" transform="translate(7.000000, 31.000000)" sketch:type="MSShapeGroup">
                <rect id="Rectangle-7" x="4" y="0" width="3" height="7"></rect>
                <rect id="Rectangle-9" x="0" y="6" width="11" height="3"></rect>
            </g>
        </g>
    </g>
</svg>