<?xml version="1.0" encoding="UTF-8" standalone="no"?>
<svg width="16px" height="25px" viewBox="0 0 16 25" version="1.1" xmlns="http://www.w3.org/2000/svg" xmlns:xlink="http://www.w3.org/1999/xlink" xmlns:sketch="http://www.bohemiancoding.com/sketch/ns">
    <!-- Generator: Sketch 3.0.2 (7799) - http://www.bohemiancoding.com/sketch -->
    <title>logo_icon_small</title>
    <description>Created with Sketch.</description>
    <defs></defs>
    <g id="Page-1" stroke="none" stroke-width="1" fill="none" fill-rule="evenodd" sketch:type="MSPage">
        <g id="Cake-only---small" sketch:type="MSLayerGroup" fill="#000000">
            <path d="M2,8.50009625 L2,11 L14,11 L14,8.50009625 L14,6.99980749 C14,6.44762906 13.544239,6 12.9975267,6 L3.00247329,6 C2.44882258,6 2,6.44371665 2,6.99980749 L2,8.50009625 Z" id="Middle-Tier" sketch:type="MSShapeGroup"></path>
            <path d="M0,16.504611 L0,13.990778 C0,13.4509752 0.448105505,13 1.00087166,13 L14.9991283,13 C15.5553691,13 16,13.4435864 16,13.990778 L16,16.504611 L16,19 L0,19 L0,16.504611 Z" id="Bottom-Tier" sketch:type="MSShapeGroup"></path>
            <path d="M4,1.50052172 L4,4 L12,4 L12,1.50052172 L12,0.998956561 C12,0.447248087 11.5469637,0 11.0029699,0 L4.99703014,0 C4.4463856,0 4,0.442660332 4,0.998956561 L4,1.50052172 Z" id="Top-Tier" sketch:type="MSShapeGroup"></path>
            <g id="Cake-Stand" transform="translate(4.287710, 18.988431)" sketch:type="MSShapeGroup">
                <rect id="Rectangle-7" x="2.45012019" y="0" width="1.83759014" height="4.28771034"></rect>
                <rect id="Rectangle-9" x="0" y="3.67518029" width="6.73783053" height="1.83759014"></rect>
            </g>
        </g>
    </g>
</svg>