<?xml version="1.0" encoding="utf-8"?>
<!-- Generator: Adobe Illustrator 17.1.0, SVG Export Plug-In . SVG Version: 6.00 Build 0)  -->
<!DOCTYPE svg PUBLIC "-//W3C//DTD SVG 1.1//EN" "http://www.w3.org/Graphics/SVG/1.1/DTD/svg11.dtd">
<svg version="1.1" xmlns="http://www.w3.org/2000/svg" xmlns:xlink="http://www.w3.org/1999/xlink" x="0px" y="0px"
	 viewBox="0 0 25 40" enable-background="new 0 0 25 40" xml:space="preserve">
<g id="Full_Logo">
</g>
<g id="Text_Only">
</g>
<g id="Cake_Only_Lrg">
	<g>
		<g>
			<defs>
				<rect id="SVGID_123_" x="0" y="0" width="25" height="40"/>
			</defs>
			<defs>
				<path id="SVGID_124_" d="M3,15v-4c0-1.1,0.9-2,2-2h15c1.1,0,2,0.9,2,2v4v3H3V15L3,15z M3,15"/>
			</defs>
			<defs>
				<rect id="SVGID_125_" x="0" y="-752" width="612" height="792"/>
			</defs>
			<clipPath id="SVGID_3_">
				<use xlink:href="#SVGID_123_"  overflow="visible"/>
			</clipPath>
			<clipPath id="SVGID_4_" clip-path="url(#SVGID_3_)">
				<use xlink:href="#SVGID_124_"  overflow="visible"/>
			</clipPath>
			<clipPath id="SVGID_8_" clip-path="url(#SVGID_4_)">
				<use xlink:href="#SVGID_125_"  overflow="visible"/>
			</clipPath>
			<path clip-path="url(#SVGID_8_)" fill-rule="evenodd" clip-rule="evenodd" d="M-2,4h29v19H-2V4z M-2,4"/>
		</g>
		<g>
			<defs>
				<rect id="SVGID_129_" x="0" y="0" width="25" height="40"/>
			</defs>
			<defs>
				<path id="SVGID_130_" d="M6,2.5V2c0-1.1,0.9-2,2-2h9c1.1,0,2,0.9,2,2v0.5V7H6V2.5L6,2.5z M6,2.5"/>
			</defs>
			<defs>
				<rect id="SVGID_131_" x="0" y="-752" width="612" height="792"/>
			</defs>
			<clipPath id="SVGID_9_">
				<use xlink:href="#SVGID_129_"  overflow="visible"/>
			</clipPath>
			<clipPath id="SVGID_10_" clip-path="url(#SVGID_9_)">
				<use xlink:href="#SVGID_130_"  overflow="visible"/>
			</clipPath>
			<clipPath id="SVGID_13_" clip-path="url(#SVGID_10_)">
				<use xlink:href="#SVGID_131_"  overflow="visible"/>
			</clipPath>
			<path clip-path="url(#SVGID_13_)" fill-rule="evenodd" clip-rule="evenodd" d="M1-5h23v17H1V-5z M1-5"/>
		</g>
		<g>
			<defs>
				<rect id="SVGID_135_" x="0" y="0" width="25" height="40"/>
			</defs>
			<defs>
				<path id="SVGID_136_" d="M0,27v-5c0-1.1,0.9-2,2-2h21c1.1,0,2,0.9,2,2v5v4H0V27L0,27z M0,27"/>
			</defs>
			<defs>
				<rect id="SVGID_137_" x="0" y="-752" width="612" height="792"/>
			</defs>
			<clipPath id="SVGID_14_">
				<use xlink:href="#SVGID_135_"  overflow="visible"/>
			</clipPath>
			<clipPath id="SVGID_17_" clip-path="url(#SVGID_14_)">
				<use xlink:href="#SVGID_136_"  overflow="visible"/>
			</clipPath>
			<clipPath id="SVGID_18_" clip-path="url(#SVGID_17_)">
				<use xlink:href="#SVGID_137_"  overflow="visible"/>
			</clipPath>
			<path clip-path="url(#SVGID_18_)" fill-rule="evenodd" clip-rule="evenodd" d="M-5,15h35v21H-5V15z M-5,15"/>
		</g>
		<g>
			<defs>
				<rect id="SVGID_141_" x="0" y="0" width="25" height="40"/>
			</defs>
			<defs>
				<path id="SVGID_142_" d="M11,31v7h3v-7H11L11,31z M11,31"/>
			</defs>
			<defs>
				<rect id="SVGID_143_" x="0" y="-752" width="612" height="792"/>
			</defs>
			<clipPath id="SVGID_21_">
				<use xlink:href="#SVGID_141_"  overflow="visible"/>
			</clipPath>
			<clipPath id="SVGID_22_" clip-path="url(#SVGID_21_)">
				<use xlink:href="#SVGID_142_"  overflow="visible"/>
			</clipPath>
			<clipPath id="SVGID_26_" clip-path="url(#SVGID_22_)">
				<use xlink:href="#SVGID_143_"  overflow="visible"/>
			</clipPath>
			<path clip-path="url(#SVGID_26_)" fill-rule="evenodd" clip-rule="evenodd" d="M6,26h13v17H6V26z M6,26"/>
		</g>
		<g>
			<defs>
				<rect id="SVGID_147_" x="0" y="0" width="25" height="40"/>
			</defs>
			<defs>
				<path id="SVGID_148_" d="M7,37v3h11v-3H7L7,37z M7,37"/>
			</defs>
			<defs>
				<rect id="SVGID_149_" x="0" y="-752" width="612" height="792"/>
			</defs>
			<clipPath id="SVGID_27_">
				<use xlink:href="#SVGID_147_"  overflow="visible"/>
			</clipPath>
			<clipPath id="SVGID_28_" clip-path="url(#SVGID_27_)">
				<use xlink:href="#SVGID_148_"  overflow="visible"/>
			</clipPath>
			<clipPath id="SVGID_32_" clip-path="url(#SVGID_28_)">
				<use xlink:href="#SVGID_149_"  overflow="visible"/>
			</clipPath>
			<path clip-path="url(#SVGID_32_)" fill-rule="evenodd" clip-rule="evenodd" d="M2,32h21v13H2V32z M2,32"/>
		</g>
	</g>
</g>
<g id="Cake_Only_Sm">
</g>
<g id="Spacers" display="none">
</g>
</svg>
