<?xml version="1.0" encoding="utf-8"?>
<!-- Generator: Adobe Illustrator 18.0.0, SVG Export Plug-In . SVG Version: 6.00 Build 0)  -->
<!DOCTYPE svg PUBLIC "-//W3C//DTD SVG 1.1//EN" "http://www.w3.org/Graphics/SVG/1.1/DTD/svg11.dtd">
<svg version="1.1" id="Layer_1" xmlns="http://www.w3.org/2000/svg" xmlns:xlink="http://www.w3.org/1999/xlink" x="0px" y="0px"
	 viewBox="0 0 25 40" enable-background="new 0 0 25 40" xml:space="preserve">
<g>
	<g>
		<defs>
			<rect id="SVGID_1_" x="0" width="25" height="40"/>
		</defs>
		<defs>
			<path id="SVGID_2_" d="M3,15v-4c0-1.1,0.9-2,2-2h15c1.1,0,2,0.9,2,2v4v3H3V15L3,15z M3,15"/>
		</defs>
		<defs>
			<rect id="SVGID_3_" x="0" y="-752" width="612" height="792"/>
		</defs>
		<clipPath id="SVGID_4_">
			<use xlink:href="#SVGID_1_"  overflow="visible"/>
		</clipPath>
		<clipPath id="SVGID_5_" clip-path="url(#SVGID_4_)">
			<use xlink:href="#SVGID_2_"  overflow="visible"/>
		</clipPath>
		<clipPath id="SVGID_6_" clip-path="url(#SVGID_5_)">
			<use xlink:href="#SVGID_3_"  overflow="visible"/>
		</clipPath>
		<path clip-path="url(#SVGID_6_)" fill-rule="evenodd" fill="#000" clip-rule="evenodd" d="M-2,4h29v19H-2V4z M-2,4"/>
	</g>
	<g>
		<defs>
			<rect id="SVGID_7_" x="0" width="25" height="40"/>
		</defs>
		<defs>
			<path id="SVGID_8_" d="M6,2.5V2c0-1.1,0.9-2,2-2h9c1.1,0,2,0.9,2,2v0.5V7H6V2.5L6,2.5z M6,2.5"/>
		</defs>
		<defs>
			<rect id="SVGID_9_" x="0" y="-752" width="612" height="792"/>
		</defs>
		<clipPath id="SVGID_10_">
			<use xlink:href="#SVGID_7_"  overflow="visible"/>
		</clipPath>
		<clipPath id="SVGID_11_" clip-path="url(#SVGID_10_)">
			<use xlink:href="#SVGID_8_"  overflow="visible"/>
		</clipPath>
		<clipPath id="SVGID_12_" clip-path="url(#SVGID_11_)">
			<use xlink:href="#SVGID_9_"  overflow="visible"/>
		</clipPath>
		<path clip-path="url(#SVGID_12_)" fill-rule="evenodd" fill="#000" clip-rule="evenodd" d="M1-5h23v17H1V-5z M1-5"/>
	</g>
	<g>
		<defs>
			<rect id="SVGID_13_" x="0" width="25" height="40"/>
		</defs>
		<defs>
			<path id="SVGID_14_" d="M0,27v-5c0-1.1,0.9-2,2-2h21c1.1,0,2,0.9,2,2v5v4H0V27L0,27z M0,27"/>
		</defs>
		<defs>
			<rect id="SVGID_15_" x="0" y="-752" width="612" height="792"/>
		</defs>
		<clipPath id="SVGID_16_">
			<use xlink:href="#SVGID_13_"  overflow="visible"/>
		</clipPath>
		<clipPath id="SVGID_17_" clip-path="url(#SVGID_16_)">
			<use xlink:href="#SVGID_14_"  overflow="visible"/>
		</clipPath>
		<clipPath id="SVGID_18_" clip-path="url(#SVGID_17_)">
			<use xlink:href="#SVGID_15_"  overflow="visible"/>
		</clipPath>
		<path clip-path="url(#SVGID_18_)" fill-rule="evenodd" fill="#000" clip-rule="evenodd" d="M-5,15h35v21H-5V15z M-5,15"/>
	</g>
	<g>
		<defs>
			<rect id="SVGID_19_" x="0" y="-1" width="25" height="40"/>
		</defs>
		<defs>
			<path id="SVGID_20_" d="M11,30v7h3v-7H11L11,30z M11,30"/>
		</defs>
		<defs>
			<rect id="SVGID_21_" x="0" y="-753" width="612" height="792"/>
		</defs>
		<clipPath id="SVGID_22_">
			<use xlink:href="#SVGID_19_"  overflow="visible"/>
		</clipPath>
		<clipPath id="SVGID_23_" clip-path="url(#SVGID_22_)">
			<use xlink:href="#SVGID_20_"  overflow="visible"/>
		</clipPath>
		<clipPath id="SVGID_24_" clip-path="url(#SVGID_23_)">
			<use xlink:href="#SVGID_21_"  overflow="visible"/>
		</clipPath>
		<path clip-path="url(#SVGID_24_)" fill-rule="evenodd" fill="#000" clip-rule="evenodd" d="M6,25h13v17H6V25z M6,25"/>
	</g>
	<g>
		<defs>
			<rect id="SVGID_25_" x="0" width="25" height="40"/>
		</defs>
		<defs>
			<path id="SVGID_26_" d="M7,37v3h11v-3H7L7,37z M7,37"/>
		</defs>
		<defs>
			<rect id="SVGID_27_" x="0" y="-752" width="612" height="792"/>
		</defs>
		<clipPath id="SVGID_28_">
			<use xlink:href="#SVGID_25_"  overflow="visible"/>
		</clipPath>
		<clipPath id="SVGID_29_" clip-path="url(#SVGID_28_)">
			<use xlink:href="#SVGID_26_"  overflow="visible"/>
		</clipPath>
		<clipPath id="SVGID_30_" clip-path="url(#SVGID_29_)">
			<use xlink:href="#SVGID_27_"  overflow="visible"/>
		</clipPath>
		<path clip-path="url(#SVGID_30_)" fill-rule="evenodd" fill="#000" clip-rule="evenodd" d="M2,32h21v13H2V32z M2,32"/>
	</g>
</g>
</svg>
