<?xml version="1.0" encoding="UTF-8" standalone="no"?>
<svg width="405px" height="149px" viewBox="0 0 405 149" version="1.1" xmlns="http://www.w3.org/2000/svg" xmlns:xlink="http://www.w3.org/1999/xlink" xmlns:sketch="http://www.bohemiancoding.com/sketch/ns">
    <!-- Generator: Sketch 3.0.2 (7799) - http://www.bohemiancoding.com/sketch -->
    <title>icon-lrg</title>
    <description>Created with Sketch.</description>
    <defs></defs>
    <g id="Page-1" stroke="none" stroke-width="1" fill="none" fill-rule="evenodd" sketch:type="MSPage">
        <g id="Medium" sketch:type="MSLayerGroup" transform="translate(1.000000, 1.000000)">
            <g id="Group" transform="translate(0.000000, 59.000000)">
                <g id="Text" fill="#000000" sketch:type="MSShapeGroup">
                    <path d="M17.7429809,25.0176981 C15.0987738,25.5079623 13.2331144,26.9338868 12.1569837,29.2823396 C11.0808529,31.6307925 10.905158,34.6216226 11.6145259,38.2504528 C13.0903624,45.7948302 16.760188,48.9837358 22.6371798,47.8981509 C24.4127956,47.5698491 26.0895831,47.0161132 27.6708365,46.232566 C29.2509918,45.4501132 30.8278529,44.5713585 32.4003215,43.5952075 C33.0284305,47.1912075 33.342485,48.9892075 33.9716921,52.5852075 C30.8926403,54.6173962 27.2700327,56.0126792 23.0797112,56.7918491 C17.0764387,57.9080755 12.1525913,57.1004528 8.24667575,54.3186415 C4.34076022,51.5368302 1.69106267,46.9263774 0.34480109,40.4522642 C-0.496337875,36.4032075 -0.44472752,32.6813585 0.522692098,29.2856226 C1.49011172,25.8920755 3.32173025,23.0632075 6.01864578,20.815434 C8.71556131,18.5687547 12.1273351,17.0541887 16.2331035,16.2936226 C20.7166158,15.4641132 25.1770681,15.6238868 29.5793215,16.7707547 C28.7864986,20.3558113 28.3955777,22.1483396 27.6269128,25.7344906 C25.9896567,25.3186415 24.3688719,25.0144151 22.7645586,24.8218113 C21.1624414,24.6292075 19.486752,24.6948679 17.7429809,25.0176981" id="Fill-1"></path>
                    <path d="M67.3383351,49.074566 C66.1370218,46.2172453 65.5341689,44.7891321 64.3207766,41.9361887 C59.0795804,42.6704906 56.4617275,43.0556981 51.228218,43.8611321 C50.8713379,46.9460755 50.6967411,48.488 50.3530381,51.5729434 C45.610376,52.3138113 43.239594,52.6990189 38.5046185,53.4989811 C40.6030736,39.5570943 42.883812,25.642566 45.3457357,11.7597736 C51.3479101,10.8295849 54.3511935,10.3874717 60.3643488,9.54920755 C66.8013678,22.1209811 73.0714768,34.7781132 79.1724796,47.5162264 C74.4353079,48.1104528 72.0689183,48.4212453 67.3383351,49.074566 L67.3383351,49.074566 Z M60.8024877,33.4922642 C59.7285531,30.9960755 59.1893896,29.7485283 58.1066703,27.2545283 C57.486248,25.8723774 56.7131907,24.0798491 55.7853025,21.8769434 C54.8574142,19.6740377 53.8877984,17.1286038 53.8877984,17.1286038 C53.8724251,17.1307925 53.7428501,19.6357358 53.5605668,21.8178491 C53.3771853,23.9988679 52.8918283,28.3149434 52.1506158,34.7649811 C55.6096076,34.2407925 57.3402016,33.9858113 60.8024877,33.4922642 L60.8024877,33.4922642 Z" id="Fill-2"></path>
                    <path d="M118.594005,43.3971321 C113.687728,43.8075094 111.235687,44.028566 106.334899,44.5024151 C102.566245,38.7286792 100.65776,35.8516604 96.7902779,30.1140377 C95.5648065,31.0124906 94.954267,31.4622642 93.7342861,32.364 C94.314079,37.6759245 94.6039755,40.3329811 95.1837684,45.6449057 C90.8243406,46.1176604 88.6457248,46.3660755 84.2906894,46.8891698 C82.6940627,33.6695472 81.0985341,20.4510189 79.5019074,7.23249057 C84.0392262,6.68860377 86.3089837,6.42924528 90.8506948,5.93679245 C91.6028883,12.8355094 91.9795341,16.2848679 92.7328256,23.1835849 C93.1775531,22.0553208 94.1274033,20.238717 95.5966512,17.7403396 C98.5527166,12.5083019 100.052711,9.89720755 103.096624,4.68596226 C108.043531,4.21101887 110.517534,3.98886792 115.468834,3.57630189 C110.785469,11.1502264 108.491553,14.9508679 104.00255,22.5773208 C109.952016,30.8614717 112.870747,35.0265283 118.594005,43.3971321" id="Fill-3"></path>
                    <path d="M147.623183,41.408717 C138.059894,41.9186792 133.279896,42.2327547 123.728687,42.981283 C122.682204,29.7080377 121.635722,16.4347925 120.588142,3.16154717 C130.539057,2.38237736 135.518907,2.05516981 145.481902,1.52332075 C145.66748,4.9825283 145.760817,6.71267925 145.946395,10.1718868 C140.564643,10.4586038 137.874316,10.620566 132.49476,10.9806038 C132.663866,13.4888302 132.74842,14.7418491 132.917526,17.2500755 C137.866629,16.9184906 140.34173,16.768566 145.294128,16.4993585 C145.483,19.958566 145.577436,21.688717 145.767406,25.1479245 C140.858932,25.4138491 138.405793,25.5626792 133.499515,25.8909811 C133.702662,28.9004151 133.804785,30.4051321 134.006834,33.414566 C139.263403,33.063283 141.892237,32.9046038 147.151003,32.6244528 C147.339875,36.1383774 147.434311,37.8947925 147.623183,41.408717" id="Fill-4"></path>
                    <path d="M169.087599,15.3579623 C171.760357,9.35222642 173.117599,6.35264151 175.876008,0.365509434 C180.793267,0.252792453 183.251896,0.211207547 188.169155,0.158679245 C182.746774,9.95411321 180.103665,14.8709811 174.952512,24.7364528 C175.106245,30.9741887 175.183112,34.0930566 175.336845,40.3318868 C170.947768,40.4391321 168.753779,40.5047925 164.366899,40.6623774 C164.146183,34.5570566 164.035275,31.5049434 163.815657,25.400717 C158.071534,15.7311321 155.13194,10.9182264 149.116589,1.33618868 C154.053613,1.0910566 156.522125,0.983811321 161.460248,0.799962264 C164.553575,6.61090566 166.079924,9.5229434 169.087599,15.3579623" id="Fill-5"></path>
                    <path d="M209.636866,0.159773585 C215.496289,0.222150943 218.427098,0.275773585 224.285422,0.424603774 C229.991112,0.569056604 234.201199,1.52769811 236.899213,3.24362264 C239.596128,4.95845283 240.862229,7.52686792 240.717281,10.9291698 C240.622845,13.1670943 239.945322,15.0526415 238.694594,16.588 C237.442768,18.1233585 235.843946,19.082 233.893733,19.4672075 C233.889341,19.5766415 233.888243,19.6313585 233.88385,19.7396981 C236.413856,20.4871321 238.218022,21.6536981 239.295251,23.2295472 C240.37248,24.8053962 240.854542,26.8135094 240.749125,29.2516981 C240.592098,32.8728679 239.082221,35.6623396 236.244749,37.6398113 C233.408376,39.617283 229.633134,40.5244906 224.892668,40.3964528 C218.618166,40.2268302 215.479817,40.1666415 209.204218,40.0998868 C209.349166,26.7861509 209.493016,13.4735094 209.636866,0.159773585 L209.636866,0.159773585 Z M220.641951,15.6687547 C221.988213,15.6983019 222.661343,15.714717 224.006507,15.7486415 C225.608624,15.7891321 226.857155,15.5067925 227.753199,14.8950566 C228.649243,14.2833208 229.118128,13.3498491 229.156561,12.0935472 C229.225741,9.85562264 227.495147,8.67592453 223.962583,8.58728302 C222.69758,8.55554717 222.066177,8.54022642 220.801174,8.51177358 L220.641951,15.6687547 L220.641951,15.6687547 Z M220.466256,23.5622264 C220.391586,26.9163774 220.354251,28.594 220.280678,31.9481509 C221.826793,31.9820755 222.59985,32.0006792 224.145965,32.0411698 C227.575308,32.1298113 229.334452,30.7684528 229.424496,27.9286415 C229.466223,26.6001132 229.036869,25.5659623 228.134237,24.827283 C227.230507,24.0896981 225.89852,23.6957358 224.141572,23.6497736 C222.671226,23.612566 221.936602,23.5950566 220.466256,23.5622264 L220.466256,23.5622264 Z" id="Fill-6"></path>
                    <path d="M272.725583,42.8827925 C272.164458,39.8372453 271.88115,38.3139245 271.306847,35.2683774 C266.038199,34.8733208 263.402777,34.6938491 258.129736,34.3710189 C257.124981,37.3093208 256.625349,38.7790189 255.632673,41.7206038 C250.852676,41.4371698 248.46103,41.3113208 243.678837,41.0880755 C248.696022,27.9111321 253.887804,14.7998491 259.248692,1.75750943 C265.296986,2.12301887 268.320035,2.32766038 274.362839,2.784 C277.957995,16.4347925 281.373063,30.1326415 284.606946,43.8720755 C279.855499,43.4474717 277.480324,43.2493962 272.725583,42.8827925 L272.725583,42.8827925 Z M269.678376,26.2718113 C269.164469,23.6049057 268.905319,22.272 268.381529,19.6050943 C268.071866,18.1233585 267.700711,16.2071698 267.265866,13.858717 C266.831022,11.5091698 266.42912,8.816 266.42912,8.816 C266.413747,8.81490566 265.753793,11.2355849 265.109213,13.3279623 C264.464632,15.4203396 263.070054,19.5350566 260.971599,25.6797736 C264.454749,25.9008302 266.196324,26.0190189 269.678376,26.2718113 L269.678376,26.2718113 Z" id="Fill-7"></path>
                    <path d="M324.009804,48.2166038 C319.122193,47.5764151 316.676741,47.2710943 311.78364,46.693283 C309.334894,40.252 308.084166,37.0346415 305.532199,30.6086792 C304.143112,31.2258868 303.449117,31.5355849 302.064422,32.1582642 C301.49561,37.471283 301.211204,40.1283396 300.642392,45.4424528 C296.281866,44.9784528 294.101054,44.7584906 289.737234,44.3448302 C291.003335,31.0901887 292.269436,17.8366415 293.535537,4.582 C298.08164,5.01316981 300.353594,5.24188679 304.896403,5.72558491 C304.157387,12.6253962 303.78733,16.0758491 303.048313,22.9756604 C303.724738,21.9666792 305.040253,20.3941132 307.010232,18.2656226 C311.017172,13.7799245 313.040956,11.5474717 317.131351,7.10335849 C322.069474,7.68992453 324.536888,7.9985283 329.468422,8.64637736 C323.266395,15.0515472 320.211501,18.2776604 314.191757,24.7758491 C318.237131,34.1335472 320.20052,38.8227925 324.009804,48.2166038" id="Fill-8"></path>
                    <path d="M352.856698,52.4462264 C343.376864,50.9097736 338.629809,50.2006415 329.122523,48.9016604 C330.93767,35.7104906 332.751719,22.5204151 334.566866,9.32924528 C344.470564,10.6829434 349.417471,11.4216226 359.292619,13.0226415 C358.734787,16.4424528 358.455872,18.1518113 357.898041,21.5705283 C352.562409,20.706 349.892946,20.2912453 344.549627,19.5000377 C344.178471,21.985283 343.992894,23.2284528 343.621738,25.7147925 C348.537899,26.4436226 350.994332,26.8233585 355.903905,27.614566 C355.349368,31.0343774 355.07155,32.7437358 354.517014,36.1635472 C349.651365,35.38 347.216894,35.0035472 342.343559,34.281283 C341.897733,37.2644528 341.675918,38.7560377 341.230093,41.7403019 C346.451523,42.514 349.060591,42.9189057 354.274335,43.7637358 C353.707719,47.2371698 353.424411,48.9738868 352.856698,52.4462264" id="Fill-9"></path>
                    <path d="M379.476659,31.5673208 C383.383673,26.2685283 385.358044,23.6278868 389.347414,18.3663019 C394.196591,19.3052453 396.618984,19.7900377 401.460474,20.7891698 C394.038466,29.2002642 390.3917,33.4397358 383.22445,41.9799623 C382.040706,48.1071698 381.447736,51.1713208 380.263992,57.2985283 C375.934213,56.4668302 373.766578,56.0641132 369.43021,55.2827547 C370.519518,49.2715472 371.06527,46.2653962 372.155676,40.2541887 C368.591267,29.5843774 366.739883,24.2549434 362.89546,13.6135849 C367.785267,14.4244906 370.228523,14.8458113 375.110643,15.7169057 C376.900534,22.0542264 377.773518,25.2245283 379.476659,31.5673208" id="Fill-10"></path>
                </g>
                <g id="--CO--" transform="translate(111.000000, 55.000000)">
                    <text id="Co" sketch:type="MSTextLayer" font-family="Open Sans" font-size="24" font-weight="633" fill="#000000">
                        <tspan x="68" y="26">Co</tspan>
                    </text>
                    <path d="M166,18 L108.278082,18" id="Line-2" stroke="#000000" stroke-width="2" stroke-linecap="square" sketch:type="MSShapeGroup"></path>
                    <path d="M58,18 L0.278081775,18" id="Line-4" stroke="#000000" stroke-width="2" stroke-linecap="square" sketch:type="MSShapeGroup"></path>
                </g>
            </g>
            <g id="Cake" transform="translate(186.000000, 0.000000)" fill="#000000" sketch:type="MSShapeGroup">
                <g>
                    <path d="M3,14.9677074 L3,10.9995634 C3,9.9048519 3.89427625,9 4.99742191,9 L20.0025781,9 C21.1090746,9 22,9.89523501 22,10.9995634 L22,14.9677074 L22,18 L3,18 L3,14.9677074 Z" id="Middle-Tier"></path>
                    <path d="M6,2.5 L6,2.0048815 C6,0.893899798 6.89666625,0 8.00276013,0 L16.9972399,0 C18.1064574,0 19,0.897616023 19,2.0048815 L19,2.5 L19,7 L6,7 L6,2.5 Z" id="Top-Tier"></path>
                    <path d="M-0.0152587891,26.9910563 L-0.0152587891,22.0009116 C-0.0152587891,20.8984397 0.882381256,20 1.98967637,20 L22.9965297,20 C24.1111064,20 25.0014648,20.8958386 25.0014648,22.0009116 L25.0014648,26.9910563 L25.0014648,30.9787803 L-0.0152587891,30.9787803 L-0.0152587891,26.9910563 Z" id="Bottom-Tier"></path>
                </g>
                <g id="Cake-Stand" transform="translate(7.000000, 31.000000)">
                    <rect id="Rectangle-7" x="4" y="0" width="3" height="7"></rect>
                    <rect id="Rectangle-9" x="0" y="6" width="11" height="3"></rect>
                </g>
            </g>
        </g>
    </g>
</svg>