<?xml version="1.0" encoding="utf-8"?>
<!-- Generator: Adobe Illustrator 17.1.0, SVG Export Plug-In . SVG Version: 6.00 Build 0)  -->
<!DOCTYPE svg PUBLIC "-//W3C//DTD SVG 1.1//EN" "http://www.w3.org/Graphics/SVG/1.1/DTD/svg11.dtd">
<svg version="1.1" xmlns="http://www.w3.org/2000/svg" xmlns:xlink="http://www.w3.org/1999/xlink" x="0px" y="0px"
	 viewBox="0 0 450.8 190" enable-background="new 0 0 450.8 190" xml:space="preserve">
<g id="Layer_1">
	<g>
		<defs>
			<rect id="SVGID_1_" x="24" y="24" width="405" height="149"/>
		</defs>
		<defs>
			<path id="SVGID_2_" d="M42.8,109c-2.6,0.5-4.5,1.9-5.6,4.3c-1.1,2.3-1.3,5.3-0.5,9c1.5,7.5,5.1,10.7,11,9.6
				c1.8-0.3,3.5-0.9,5-1.7c1.6-0.8,3.2-1.7,4.7-2.6c0.6,3.6,0.9,5.4,1.6,9c-3.1,2-6.7,3.4-10.9,4.2c-6,1.1-10.9,0.3-14.8-2.5
				c-3.9-2.8-6.6-7.4-7.9-13.9c-0.8-4-0.8-7.8,0.2-11.2c1-3.4,2.8-6.2,5.5-8.5c2.7-2.2,6.1-3.8,10.2-4.5c4.5-0.8,8.9-0.7,13.3,0.5
				c-0.8,3.6-1.2,5.4-2,9c-1.6-0.4-3.3-0.7-4.9-0.9C46.2,108.6,44.5,108.7,42.8,109"/>
		</defs>
		<clipPath id="SVGID_3_">
			<use xlink:href="#SVGID_1_"  overflow="visible"/>
		</clipPath>
		<clipPath id="SVGID_4_" clip-path="url(#SVGID_3_)">
			<use xlink:href="#SVGID_2_"  overflow="visible"/>
		</clipPath>
		<path clip-path="url(#SVGID_4_)" fill-rule="evenodd" clip-rule="evenodd" d="M19.8,94.8H64v51.5H19.8V94.8z M19.8,94.8"/>
	</g>
	<g>
		<defs>
			<rect id="SVGID_5_" x="24" y="24" width="405" height="149"/>
		</defs>
		<defs>
			<path id="SVGID_6_" d="M92.4,133.1c-1.2-2.9-1.8-4.3-3-7.1c-5.2,0.7-7.9,1.1-13.1,1.9c-0.4,3.1-0.5,4.6-0.9,7.7
				c-4.7,0.7-7.1,1.1-11.8,1.9c2.1-13.9,4.4-27.9,6.8-41.7c6-0.9,9-1.4,15-2.2c6.4,12.6,12.7,25.2,18.8,38
				C99.5,132.1,97.1,132.4,92.4,133.1L92.4,133.1L92.4,133.1z M85.8,117.5c-1.1-2.5-1.6-3.7-2.7-6.2c-0.6-1.4-1.4-3.2-2.3-5.4
				c-0.9-2.2-1.9-4.7-1.9-4.7c0,0-0.1,2.5-0.3,4.7c-0.2,2.2-0.7,6.5-1.4,12.9C80.6,118.3,82.4,118,85.8,117.5L85.8,117.5L85.8,117.5
				z M85.8,117.5"/>
		</defs>
		<defs>
			<rect id="SVGID_7_" x="24" y="-619" width="612" height="792"/>
		</defs>
		<clipPath id="SVGID_8_">
			<use xlink:href="#SVGID_5_"  overflow="visible"/>
		</clipPath>
		<clipPath id="SVGID_9_" clip-path="url(#SVGID_8_)">
			<use xlink:href="#SVGID_6_"  overflow="visible"/>
		</clipPath>
		<clipPath id="SVGID_10_" clip-path="url(#SVGID_9_)">
			<use xlink:href="#SVGID_7_"  overflow="visible"/>
		</clipPath>
		<path clip-path="url(#SVGID_10_)" fill-rule="evenodd" clip-rule="evenodd" d="M58.5,88.6h50.7v53.9H58.5V88.6z M58.5,88.6"/>
	</g>
	<g>
		<defs>
			<rect id="SVGID_11_" x="24" y="24" width="405" height="149"/>
		</defs>
		<defs>
			<path id="SVGID_12_" d="M143.6,127.4c-4.9,0.4-7.4,0.6-12.3,1.1c-3.8-5.8-5.7-8.7-9.5-14.4c-1.2,0.9-1.8,1.3-3.1,2.2
				c0.6,5.3,0.9,8,1.4,13.3c-4.4,0.5-6.5,0.7-10.9,1.2c-1.6-13.2-3.2-26.4-4.8-39.7c4.5-0.5,6.8-0.8,11.3-1.3
				c0.8,6.9,1.1,10.3,1.9,17.2c0.4-1.1,1.4-2.9,2.9-5.4c3-5.2,4.5-7.8,7.5-13.1c4.9-0.5,7.4-0.7,12.4-1.1c-4.7,7.6-7,11.4-11.5,19
				C135,114.9,137.9,119,143.6,127.4"/>
		</defs>
		<clipPath id="SVGID_13_">
			<use xlink:href="#SVGID_11_"  overflow="visible"/>
		</clipPath>
		<clipPath id="SVGID_14_" clip-path="url(#SVGID_13_)">
			<use xlink:href="#SVGID_12_"  overflow="visible"/>
		</clipPath>
		<path clip-path="url(#SVGID_14_)" fill-rule="evenodd" clip-rule="evenodd" d="M99.5,82.6h49.1v53.3H99.5V82.6z M99.5,82.6"/>
	</g>
	<g>
		<defs>
			<rect id="SVGID_15_" x="24" y="24" width="405" height="149"/>
		</defs>
		<defs>
			<path id="SVGID_16_" d="M172.6,125.4c-9.6,0.5-14.3,0.8-23.9,1.6c-1-13.3-2.1-26.5-3.1-39.8c10-0.8,14.9-1.1,24.9-1.6
				c0.2,3.5,0.3,5.2,0.5,8.6c-5.4,0.3-8.1,0.4-13.5,0.8c0.2,2.5,0.3,3.8,0.4,6.3c4.9-0.3,7.4-0.5,12.4-0.8c0.2,3.5,0.3,5.2,0.5,8.6
				c-4.9,0.3-7.4,0.4-12.3,0.7c0.2,3,0.3,4.5,0.5,7.5c5.3-0.4,7.9-0.5,13.1-0.8C172.4,120.2,172.5,121.9,172.6,125.4"/>
		</defs>
		<clipPath id="SVGID_17_">
			<use xlink:href="#SVGID_15_"  overflow="visible"/>
		</clipPath>
		<clipPath id="SVGID_18_" clip-path="url(#SVGID_17_)">
			<use xlink:href="#SVGID_16_"  overflow="visible"/>
		</clipPath>
		<path clip-path="url(#SVGID_18_)" fill-rule="evenodd" clip-rule="evenodd" d="M140.6,80.5h37V132h-37V80.5z M140.6,80.5"/>
	</g>
	<g>
		<defs>
			<rect id="SVGID_19_" x="24" y="24" width="405" height="149"/>
		</defs>
		<defs>
			<path id="SVGID_20_" d="M194.1,99.4c2.7-6,4-9,6.8-15c4.9-0.1,7.4-0.2,12.3-0.2c-5.4,9.8-8.1,14.7-13.2,24.6
				c0.2,6.2,0.2,9.4,0.4,15.6c-4.4,0.1-6.6,0.2-11,0.3c-0.2-6.1-0.3-9.2-0.6-15.3c-5.7-9.7-8.7-14.5-14.7-24.1
				c4.9-0.2,7.4-0.4,12.3-0.5C189.6,90.6,191.1,93.5,194.1,99.4"/>
		</defs>
		<clipPath id="SVGID_21_">
			<use xlink:href="#SVGID_19_"  overflow="visible"/>
		</clipPath>
		<clipPath id="SVGID_22_" clip-path="url(#SVGID_21_)">
			<use xlink:href="#SVGID_20_"  overflow="visible"/>
		</clipPath>
		<path clip-path="url(#SVGID_22_)" fill-rule="evenodd" clip-rule="evenodd" d="M169.1,79.2h49.1v50.5h-49.1V79.2z M169.1,79.2"/>
	</g>
	<g>
		<defs>
			<rect id="SVGID_23_" x="24" y="24" width="405" height="149"/>
		</defs>
		<defs>
			<path id="SVGID_24_" d="M234.7,84.2c5.9,0.1,8.8,0.1,14.6,0.3c5.7,0.1,9.9,1.1,12.6,2.8c2.7,1.7,4,4.3,3.8,7.7
				c-0.1,2.2-0.8,4.1-2,5.7c-1.3,1.5-2.9,2.5-4.8,2.9c0,0.1,0,0.2,0,0.3c2.5,0.7,4.3,1.9,5.4,3.5c1.1,1.6,1.6,3.6,1.5,6
				c-0.2,3.6-1.7,6.4-4.5,8.4c-2.8,2-6.6,2.9-11.4,2.8c-6.3-0.2-9.4-0.2-15.7-0.3C234.4,110.8,234.5,97.5,234.7,84.2L234.7,84.2
				L234.7,84.2z M245.7,99.7c1.3,0,2,0,3.4,0.1c1.6,0,2.9-0.2,3.7-0.9s1.4-1.5,1.4-2.8c0.1-2.2-1.7-3.4-5.2-3.5
				c-1.3,0-1.9,0-3.2-0.1L245.7,99.7L245.7,99.7L245.7,99.7z M245.5,107.6c-0.1,3.4-0.1,5-0.2,8.4c1.5,0,2.3,0.1,3.9,0.1
				c3.4,0.1,5.2-1.3,5.3-4.1c0-1.3-0.4-2.4-1.3-3.1c-0.9-0.7-2.2-1.1-4-1.2C247.7,107.6,247,107.6,245.5,107.6L245.5,107.6
				L245.5,107.6z M245.5,107.6"/>
		</defs>
		<defs>
			<rect id="SVGID_25_" x="24" y="-619" width="612" height="792"/>
		</defs>
		<clipPath id="SVGID_26_">
			<use xlink:href="#SVGID_23_"  overflow="visible"/>
		</clipPath>
		<clipPath id="SVGID_27_" clip-path="url(#SVGID_26_)">
			<use xlink:href="#SVGID_24_"  overflow="visible"/>
		</clipPath>
		<clipPath id="SVGID_28_" clip-path="url(#SVGID_27_)">
			<use xlink:href="#SVGID_25_"  overflow="visible"/>
		</clipPath>
		<path clip-path="url(#SVGID_28_)" fill-rule="evenodd" clip-rule="evenodd" d="M229.2,79.2h41.6v50.2h-41.6V79.2z M229.2,79.2"/>
	</g>
	<g>
		<defs>
			<rect id="SVGID_29_" x="24" y="24" width="405" height="149"/>
		</defs>
		<defs>
			<path id="SVGID_30_" d="M297.7,126.9c-0.6-3-0.8-4.6-1.4-7.6c-5.3-0.4-7.9-0.6-13.2-0.9c-1,2.9-1.5,4.4-2.5,7.3
				c-4.8-0.3-7.2-0.4-12-0.6c5-13.2,10.2-26.3,15.6-39.3c6,0.4,9.1,0.6,15.1,1c3.6,13.7,7,27.3,10.2,41.1
				C304.9,127.5,302.5,127.3,297.7,126.9L297.7,126.9L297.7,126.9z M294.7,110.3c-0.5-2.7-0.8-4-1.3-6.7c-0.3-1.5-0.7-3.4-1.1-5.7
				c-0.4-2.3-0.8-5-0.8-5c0,0-0.7,2.4-1.3,4.5c-0.6,2.1-2,6.2-4.1,12.4C289.5,109.9,291.2,110,294.7,110.3L294.7,110.3L294.7,110.3z
				 M294.7,110.3"/>
		</defs>
		<defs>
			<rect id="SVGID_31_" x="24" y="-619" width="612" height="792"/>
		</defs>
		<clipPath id="SVGID_32_">
			<use xlink:href="#SVGID_29_"  overflow="visible"/>
		</clipPath>
		<clipPath id="SVGID_33_" clip-path="url(#SVGID_32_)">
			<use xlink:href="#SVGID_30_"  overflow="visible"/>
		</clipPath>
		<clipPath id="SVGID_34_" clip-path="url(#SVGID_33_)">
			<use xlink:href="#SVGID_31_"  overflow="visible"/>
		</clipPath>
		<path clip-path="url(#SVGID_34_)" fill-rule="evenodd" clip-rule="evenodd" d="M263.7,80.8h50.9v52.1h-50.9V80.8z M263.7,80.8"/>
	</g>
	<g>
		<defs>
			<rect id="SVGID_35_" x="24" y="24" width="405" height="149"/>
		</defs>
		<defs>
			<path id="SVGID_36_" d="M349,132.2c-4.9-0.6-7.3-0.9-12.2-1.5c-2.4-6.4-3.7-9.7-6.3-16.1c-1.4,0.6-2.1,0.9-3.5,1.5
				c-0.6,5.3-0.9,8-1.4,13.3c-4.4-0.5-6.5-0.7-10.9-1.1c1.3-13.3,2.5-26.5,3.8-39.8c4.5,0.4,6.8,0.7,11.4,1.1
				c-0.7,6.9-1.1,10.4-1.8,17.3c0.7-1,2-2.6,4-4.7c4-4.5,6-6.7,10.1-11.2c4.9,0.6,7.4,0.9,12.3,1.5c-6.2,6.4-9.3,9.6-15.3,16.1
				C343.3,118.2,345.2,122.8,349,132.2"/>
		</defs>
		<clipPath id="SVGID_37_">
			<use xlink:href="#SVGID_35_"  overflow="visible"/>
		</clipPath>
		<clipPath id="SVGID_38_" clip-path="url(#SVGID_37_)">
			<use xlink:href="#SVGID_36_"  overflow="visible"/>
		</clipPath>
		<path clip-path="url(#SVGID_38_)" fill-rule="evenodd" clip-rule="evenodd" d="M309.8,83.6h49.7v53.6h-49.7V83.6z M309.8,83.6"/>
	</g>
	<g>
		<defs>
			<rect id="SVGID_39_" x="24" y="24" width="405" height="149"/>
		</defs>
		<defs>
			<path id="SVGID_40_" d="M377.9,136.5c-9.5-1.5-14.2-2.2-23.7-3.5c1.8-13.2,3.6-26.4,5.4-39.6c9.9,1.4,14.9,2.1,24.7,3.7
				c-0.6,3.4-0.8,5.1-1.4,8.5c-5.3-0.9-8-1.3-13.3-2.1c-0.4,2.5-0.6,3.7-0.9,6.2c4.9,0.7,7.4,1.1,12.3,1.9c-0.6,3.4-0.8,5.1-1.4,8.5
				c-4.9-0.8-7.3-1.2-12.2-1.9c-0.4,3-0.7,4.5-1.1,7.5c5.2,0.8,7.8,1.2,13,2C378.7,131.3,378.4,133,377.9,136.5"/>
		</defs>
		<clipPath id="SVGID_41_">
			<use xlink:href="#SVGID_39_"  overflow="visible"/>
		</clipPath>
		<clipPath id="SVGID_42_" clip-path="url(#SVGID_41_)">
			<use xlink:href="#SVGID_40_"  overflow="visible"/>
		</clipPath>
		<path clip-path="url(#SVGID_42_)" fill-rule="evenodd" clip-rule="evenodd" d="M349.1,88.3h40.2v53.1h-40.2V88.3z M349.1,88.3"/>
	</g>
	<g>
		<defs>
			<rect id="SVGID_43_" x="24" y="24" width="405" height="149"/>
		</defs>
		<defs>
			<path id="SVGID_44_" d="M404.5,115.6c3.9-5.3,5.9-7.9,9.9-13.2c4.8,0.9,7.3,1.4,12.1,2.4c-7.4,8.4-11.1,12.7-18.2,21.2
				c-1.2,6.1-1.8,9.2-3,15.3c-4.3-0.8-6.5-1.2-10.8-2c1.1-6,1.6-9,2.7-15c-3.6-10.7-5.4-16-9.3-26.6c4.9,0.8,7.3,1.2,12.2,2.1
				C401.9,106.1,402.8,109.2,404.5,115.6"/>
		</defs>
		<clipPath id="SVGID_45_">
			<use xlink:href="#SVGID_43_"  overflow="visible"/>
		</clipPath>
		<clipPath id="SVGID_46_" clip-path="url(#SVGID_45_)">
			<use xlink:href="#SVGID_44_"  overflow="visible"/>
		</clipPath>
		<path clip-path="url(#SVGID_46_)" fill-rule="evenodd" clip-rule="evenodd" d="M382.9,92.6h48.6v53.7h-48.6V92.6z M382.9,92.6"/>
	</g>
	<path d="M215.5,151.7c0.6,0.2,1.3,0.5,1.9,0.8l1.4-3.6c-1.7-0.8-3.5-1.2-5.3-1.2c-1.7,0-3.2,0.4-4.4,1.1c-1.3,0.7-2.2,1.8-2.9,3.1
		c-0.7,1.3-1,2.9-1,4.7c0,2.8,0.7,5,2.1,6.5c1.4,1.5,3.4,2.2,5.9,2.2c1.8,0,3.4-0.3,4.9-0.9v-3.9c-0.7,0.3-1.4,0.6-2.1,0.8
		c-0.7,0.2-1.4,0.3-2.2,0.3c-2.5,0-3.8-1.6-3.8-4.9c0-1.6,0.3-2.8,0.9-3.7c0.6-0.9,1.5-1.4,2.6-1.4
		C214.2,151.4,214.9,151.5,215.5,151.7L215.5,151.7z M233,154.7c-0.5-1-1.3-1.8-2.3-2.4c-1-0.6-2.2-0.8-3.5-0.8
		c-2.1,0-3.7,0.6-4.9,1.8c-1.2,1.2-1.8,2.9-1.8,5c0,2.1,0.6,3.8,1.8,5c1.2,1.2,2.8,1.9,4.8,1.9c2.1,0,3.7-0.6,4.9-1.8
		c1.2-1.2,1.8-2.9,1.8-5.1C233.9,157,233.6,155.8,233,154.7L233,154.7z M225.7,155.8c0.3-0.6,0.8-0.9,1.5-0.9c0.7,0,1.2,0.3,1.5,0.9
		c0.3,0.6,0.4,1.4,0.4,2.6c0,1.1-0.1,2-0.4,2.6s-0.8,0.9-1.5,0.9c-0.7,0-1.2-0.3-1.5-0.9s-0.5-1.5-0.5-2.6
		C225.3,157.2,225.4,156.4,225.7,155.8L225.7,155.8z"/>
	<path fill="none" stroke="#000000" stroke-width="3" stroke-linecap="square" stroke-miterlimit="10" d="M302,157h-57.7 M194,157
		h-57.7"/>
	<g>
		<defs>
			<rect id="SVGID_47_" x="24" y="24" width="405" height="149"/>
		</defs>
		<defs>
			<path id="SVGID_48_" d="M214,40v-4c0-1.1,0.9-2,2-2h15c1.1,0,2,0.9,2,2v4v3h-19V40L214,40z M214,40"/>
		</defs>
		<defs>
			<rect id="SVGID_49_" x="24" y="-619" width="612" height="792"/>
		</defs>
		<clipPath id="SVGID_50_">
			<use xlink:href="#SVGID_47_"  overflow="visible"/>
		</clipPath>
		<clipPath id="SVGID_51_" clip-path="url(#SVGID_50_)">
			<use xlink:href="#SVGID_48_"  overflow="visible"/>
		</clipPath>
		<clipPath id="SVGID_52_" clip-path="url(#SVGID_51_)">
			<use xlink:href="#SVGID_49_"  overflow="visible"/>
		</clipPath>
		<path clip-path="url(#SVGID_52_)" fill-rule="evenodd" clip-rule="evenodd" d="M209,29h29v19h-29V29z M209,29"/>
	</g>
	<g>
		<defs>
			<rect id="SVGID_53_" x="24" y="24" width="405" height="149"/>
		</defs>
		<defs>
			<path id="SVGID_54_" d="M217,27.5V27c0-1.1,0.9-2,2-2h9c1.1,0,2,0.9,2,2v0.5V32h-13V27.5L217,27.5z M217,27.5"/>
		</defs>
		<defs>
			<rect id="SVGID_55_" x="24" y="-619" width="612" height="792"/>
		</defs>
		<clipPath id="SVGID_56_">
			<use xlink:href="#SVGID_53_"  overflow="visible"/>
		</clipPath>
		<clipPath id="SVGID_57_" clip-path="url(#SVGID_56_)">
			<use xlink:href="#SVGID_54_"  overflow="visible"/>
		</clipPath>
		<clipPath id="SVGID_58_" clip-path="url(#SVGID_57_)">
			<use xlink:href="#SVGID_55_"  overflow="visible"/>
		</clipPath>
		<path clip-path="url(#SVGID_58_)" fill-rule="evenodd" clip-rule="evenodd" d="M212,20h23v17h-23V20z M212,20"/>
	</g>
	<g>
		<defs>
			<rect id="SVGID_59_" x="24" y="24" width="405" height="149"/>
		</defs>
		<defs>
			<path id="SVGID_60_" d="M211,52v-5c0-1.1,0.9-2,2-2h21c1.1,0,2,0.9,2,2v5v4h-25V52L211,52z M211,52"/>
		</defs>
		<defs>
			<rect id="SVGID_61_" x="24" y="-619" width="612" height="792"/>
		</defs>
		<clipPath id="SVGID_62_">
			<use xlink:href="#SVGID_59_"  overflow="visible"/>
		</clipPath>
		<clipPath id="SVGID_63_" clip-path="url(#SVGID_62_)">
			<use xlink:href="#SVGID_60_"  overflow="visible"/>
		</clipPath>
		<clipPath id="SVGID_64_" clip-path="url(#SVGID_63_)">
			<use xlink:href="#SVGID_61_"  overflow="visible"/>
		</clipPath>
		<path clip-path="url(#SVGID_64_)" fill-rule="evenodd" clip-rule="evenodd" d="M206,40h35v21h-35V40z M206,40"/>
	</g>
	<g>
		<defs>
			<rect id="SVGID_65_" x="24" y="24" width="405" height="149"/>
		</defs>
		<defs>
			<path id="SVGID_66_" d="M222,56v7h3v-7H222L222,56z M222,56"/>
		</defs>
		<defs>
			<rect id="SVGID_67_" x="24" y="-619" width="612" height="792"/>
		</defs>
		<clipPath id="SVGID_68_">
			<use xlink:href="#SVGID_65_"  overflow="visible"/>
		</clipPath>
		<clipPath id="SVGID_69_" clip-path="url(#SVGID_68_)">
			<use xlink:href="#SVGID_66_"  overflow="visible"/>
		</clipPath>
		<clipPath id="SVGID_70_" clip-path="url(#SVGID_69_)">
			<use xlink:href="#SVGID_67_"  overflow="visible"/>
		</clipPath>
		<path clip-path="url(#SVGID_70_)" fill-rule="evenodd" clip-rule="evenodd" d="M217,51h13v17h-13V51z M217,51"/>
	</g>
	<g>
		<defs>
			<rect id="SVGID_71_" x="24" y="24" width="405" height="149"/>
		</defs>
		<defs>
			<path id="SVGID_72_" d="M218,62v3h11v-3H218L218,62z M218,62"/>
		</defs>
		<defs>
			<rect id="SVGID_73_" x="24" y="-619" width="612" height="792"/>
		</defs>
		<clipPath id="SVGID_74_">
			<use xlink:href="#SVGID_71_"  overflow="visible"/>
		</clipPath>
		<clipPath id="SVGID_75_" clip-path="url(#SVGID_74_)">
			<use xlink:href="#SVGID_72_"  overflow="visible"/>
		</clipPath>
		<clipPath id="SVGID_76_" clip-path="url(#SVGID_75_)">
			<use xlink:href="#SVGID_73_"  overflow="visible"/>
		</clipPath>
		<path clip-path="url(#SVGID_76_)" fill-rule="evenodd" clip-rule="evenodd" d="M213,57h21v13h-21V57z M213,57"/>
	</g>
</g>
<g id="Layer_2">
</g>
</svg>
