<?xml version="1.0" encoding="utf-8"?>
<!-- Generator: Adobe Illustrator 17.1.0, SVG Export Plug-In . SVG Version: 6.00 Build 0)  -->
<!DOCTYPE svg PUBLIC "-//W3C//DTD SVG 1.1//EN" "http://www.w3.org/Graphics/SVG/1.1/DTD/svg11.dtd">
<svg version="1.1" xmlns="http://www.w3.org/2000/svg" xmlns:xlink="http://www.w3.org/1999/xlink" x="0px" y="0px"
	 viewBox="0 0 401.9 140.3" enable-background="new 0 0 401.9 140.3" xml:space="preserve">
<g id="Full_Logo">
	<g>
		<defs>
			<rect id="SVGID_1_" x="-0.6" y="-1" width="405" height="149"/>
		</defs>
		<defs>
			<path id="SVGID_2_" d="M18.1,84c-2.6,0.5-4.5,1.9-5.6,4.3c-1.1,2.3-1.3,5.3-0.5,9c1.5,7.5,5.1,10.7,11,9.6c1.8-0.3,3.5-0.9,5-1.7
				c1.6-0.8,3.2-1.7,4.7-2.6c0.6,3.6,0.9,5.4,1.6,9c-3.1,2-6.7,3.4-10.9,4.2c-6,1.1-10.9,0.3-14.8-2.5c-3.9-2.8-6.6-7.4-7.9-13.9
				c-0.8-4-0.8-7.8,0.2-11.2c1-3.4,2.8-6.2,5.5-8.5c2.7-2.2,6.1-3.8,10.2-4.5c4.5-0.8,8.9-0.7,13.3,0.5c-0.8,3.6-1.2,5.4-2,9
				c-1.6-0.4-3.3-0.7-4.9-0.9C21.6,83.6,19.9,83.7,18.1,84"/>
		</defs>
		<clipPath id="SVGID_3_">
			<use xlink:href="#SVGID_1_"  overflow="visible"/>
		</clipPath>
		<clipPath id="SVGID_4_" clip-path="url(#SVGID_3_)">
			<use xlink:href="#SVGID_2_"  overflow="visible"/>
		</clipPath>
		<path clip-path="url(#SVGID_4_)" fill-rule="evenodd" clip-rule="evenodd" d="M-4.9,69.8h44.2v51.5H-4.9V69.8z M-4.9,69.8"/>
	</g>
	<g>
		<defs>
			<rect id="SVGID_5_" x="-0.6" y="-1" width="405" height="149"/>
		</defs>
		<defs>
			<path id="SVGID_6_" d="M67.7,108.1c-1.2-2.9-1.8-4.3-3-7.1c-5.2,0.7-7.9,1.1-13.1,1.9c-0.4,3.1-0.5,4.6-0.9,7.7
				c-4.7,0.7-7.1,1.1-11.8,1.9c2.1-13.9,4.4-27.9,6.8-41.7c6-0.9,9-1.4,15-2.2c6.4,12.6,12.7,25.2,18.8,38
				C74.8,107.1,72.5,107.4,67.7,108.1L67.7,108.1L67.7,108.1z M61.2,92.5c-1.1-2.5-1.6-3.7-2.7-6.2c-0.6-1.4-1.4-3.2-2.3-5.4
				c-0.9-2.2-1.9-4.7-1.9-4.7c0,0-0.1,2.5-0.3,4.7c-0.2,2.2-0.7,6.5-1.4,12.9C56,93.2,57.7,93,61.2,92.5L61.2,92.5L61.2,92.5z
				 M61.2,92.5"/>
		</defs>
		<defs>
			<rect id="SVGID_7_" x="-0.6" y="-644" width="612" height="792"/>
		</defs>
		<clipPath id="SVGID_8_">
			<use xlink:href="#SVGID_5_"  overflow="visible"/>
		</clipPath>
		<clipPath id="SVGID_9_" clip-path="url(#SVGID_8_)">
			<use xlink:href="#SVGID_6_"  overflow="visible"/>
		</clipPath>
		<clipPath id="SVGID_10_" clip-path="url(#SVGID_9_)">
			<use xlink:href="#SVGID_7_"  overflow="visible"/>
		</clipPath>
		<path clip-path="url(#SVGID_10_)" fill-rule="evenodd" clip-rule="evenodd" d="M33.9,63.5h50.7v53.9H33.9V63.5z M33.9,63.5"/>
	</g>
	<g>
		<defs>
			<rect id="SVGID_11_" x="-0.6" y="-1" width="405" height="149"/>
		</defs>
		<defs>
			<path id="SVGID_12_" d="M119,102.4c-4.9,0.4-7.4,0.6-12.3,1.1c-3.8-5.8-5.7-8.7-9.5-14.4c-1.2,0.9-1.8,1.3-3.1,2.2
				c0.6,5.3,0.9,8,1.4,13.3c-4.4,0.5-6.5,0.7-10.9,1.2c-1.6-13.2-3.2-26.4-4.8-39.7c4.5-0.5,6.8-0.8,11.3-1.3
				c0.8,6.9,1.1,10.3,1.9,17.2c0.4-1.1,1.4-2.9,2.9-5.4c3-5.2,4.5-7.8,7.5-13.1c4.9-0.5,7.4-0.7,12.4-1.1c-4.7,7.6-7,11.4-11.5,19
				C110.3,89.9,113.3,94,119,102.4"/>
		</defs>
		<clipPath id="SVGID_13_">
			<use xlink:href="#SVGID_11_"  overflow="visible"/>
		</clipPath>
		<clipPath id="SVGID_14_" clip-path="url(#SVGID_13_)">
			<use xlink:href="#SVGID_12_"  overflow="visible"/>
		</clipPath>
		<path clip-path="url(#SVGID_14_)" fill-rule="evenodd" clip-rule="evenodd" d="M74.9,57.6H124v53.3H74.9V57.6z M74.9,57.6"/>
	</g>
	<g>
		<defs>
			<rect id="SVGID_15_" x="-0.6" y="-1" width="405" height="149"/>
		</defs>
		<defs>
			<path id="SVGID_16_" d="M148,100.4c-9.6,0.5-14.3,0.8-23.9,1.6c-1-13.3-2.1-26.5-3.1-39.8c10-0.8,14.9-1.1,24.9-1.6
				c0.2,3.5,0.3,5.2,0.5,8.6c-5.4,0.3-8.1,0.4-13.5,0.8c0.2,2.5,0.3,3.8,0.4,6.3c4.9-0.3,7.4-0.5,12.4-0.8c0.2,3.5,0.3,5.2,0.5,8.6
				c-4.9,0.3-7.4,0.4-12.3,0.7c0.2,3,0.3,4.5,0.5,7.5c5.3-0.4,7.9-0.5,13.1-0.8C147.7,95.1,147.8,96.9,148,100.4"/>
		</defs>
		<clipPath id="SVGID_17_">
			<use xlink:href="#SVGID_15_"  overflow="visible"/>
		</clipPath>
		<clipPath id="SVGID_18_" clip-path="url(#SVGID_17_)">
			<use xlink:href="#SVGID_16_"  overflow="visible"/>
		</clipPath>
		<path clip-path="url(#SVGID_18_)" fill-rule="evenodd" clip-rule="evenodd" d="M116,55.5h37V107h-37V55.5z M116,55.5"/>
	</g>
	<g>
		<defs>
			<rect id="SVGID_19_" x="-0.6" y="-1" width="405" height="149"/>
		</defs>
		<defs>
			<path id="SVGID_20_" d="M169.5,74.4c2.7-6,4-9,6.8-15c4.9-0.1,7.4-0.2,12.3-0.2c-5.4,9.8-8.1,14.7-13.2,24.6
				c0.2,6.2,0.2,9.4,0.4,15.6c-4.4,0.1-6.6,0.2-11,0.3c-0.2-6.1-0.3-9.2-0.6-15.3c-5.7-9.7-8.7-14.5-14.7-24.1
				c4.9-0.2,7.4-0.4,12.3-0.5C165,65.6,166.5,68.5,169.5,74.4"/>
		</defs>
		<clipPath id="SVGID_21_">
			<use xlink:href="#SVGID_19_"  overflow="visible"/>
		</clipPath>
		<clipPath id="SVGID_22_" clip-path="url(#SVGID_21_)">
			<use xlink:href="#SVGID_20_"  overflow="visible"/>
		</clipPath>
		<path clip-path="url(#SVGID_22_)" fill-rule="evenodd" clip-rule="evenodd" d="M144.5,54.2h49.1v50.5h-49.1V54.2z M144.5,54.2"/>
	</g>
	<g>
		<defs>
			<rect id="SVGID_23_" x="-0.6" y="-1" width="405" height="149"/>
		</defs>
		<defs>
			<path id="SVGID_24_" d="M210,59.2c5.9,0.1,8.8,0.1,14.6,0.3c5.7,0.1,9.9,1.1,12.6,2.8c2.7,1.7,4,4.3,3.8,7.7
				c-0.1,2.2-0.8,4.1-2,5.7c-1.3,1.5-2.9,2.5-4.8,2.9c0,0.1,0,0.2,0,0.3c2.5,0.7,4.3,1.9,5.4,3.5c1.1,1.6,1.6,3.6,1.5,6
				c-0.2,3.6-1.7,6.4-4.5,8.4c-2.8,2-6.6,2.9-11.4,2.8c-6.3-0.2-9.4-0.2-15.7-0.3C209.7,85.8,209.9,72.5,210,59.2L210,59.2L210,59.2
				z M221,74.7c1.3,0,2,0,3.4,0.1c1.6,0,2.9-0.2,3.7-0.9s1.4-1.5,1.4-2.8c0.1-2.2-1.7-3.4-5.2-3.5c-1.3,0-1.9,0-3.2-0.1L221,74.7
				L221,74.7L221,74.7z M220.9,82.6c-0.1,3.4-0.1,5-0.2,8.4c1.5,0,2.3,0.1,3.9,0.1c3.4,0.1,5.2-1.3,5.3-4.1c0-1.3-0.4-2.4-1.3-3.1
				c-0.9-0.7-2.2-1.1-4-1.2C223.1,82.6,222.3,82.6,220.9,82.6L220.9,82.6L220.9,82.6z M220.9,82.6"/>
		</defs>
		<defs>
			<rect id="SVGID_25_" x="-0.6" y="-644" width="612" height="792"/>
		</defs>
		<clipPath id="SVGID_26_">
			<use xlink:href="#SVGID_23_"  overflow="visible"/>
		</clipPath>
		<clipPath id="SVGID_27_" clip-path="url(#SVGID_26_)">
			<use xlink:href="#SVGID_24_"  overflow="visible"/>
		</clipPath>
		<clipPath id="SVGID_28_" clip-path="url(#SVGID_27_)">
			<use xlink:href="#SVGID_25_"  overflow="visible"/>
		</clipPath>
		<path clip-path="url(#SVGID_28_)" fill-rule="evenodd" clip-rule="evenodd" d="M204.6,54.2h41.6v50.2h-41.6V54.2z M204.6,54.2"/>
	</g>
	<g>
		<defs>
			<rect id="SVGID_29_" x="-0.6" y="-1" width="405" height="149"/>
		</defs>
		<defs>
			<path id="SVGID_30_" d="M273.1,101.9c-0.6-3-0.8-4.6-1.4-7.6c-5.3-0.4-7.9-0.6-13.2-0.9c-1,2.9-1.5,4.4-2.5,7.3
				c-4.8-0.3-7.2-0.4-12-0.6c5-13.2,10.2-26.3,15.6-39.3c6,0.4,9.1,0.6,15.1,1c3.6,13.7,7,27.3,10.2,41.1
				C280.3,102.4,277.9,102.2,273.1,101.9L273.1,101.9L273.1,101.9z M270.1,85.3c-0.5-2.7-0.8-4-1.3-6.7c-0.3-1.5-0.7-3.4-1.1-5.7
				c-0.4-2.3-0.8-5-0.8-5c0,0-0.7,2.4-1.3,4.5c-0.6,2.1-2,6.2-4.1,12.4C264.9,84.9,266.6,85,270.1,85.3L270.1,85.3L270.1,85.3z
				 M270.1,85.3"/>
		</defs>
		<defs>
			<rect id="SVGID_31_" x="-0.6" y="-644" width="612" height="792"/>
		</defs>
		<clipPath id="SVGID_32_">
			<use xlink:href="#SVGID_29_"  overflow="visible"/>
		</clipPath>
		<clipPath id="SVGID_33_" clip-path="url(#SVGID_32_)">
			<use xlink:href="#SVGID_30_"  overflow="visible"/>
		</clipPath>
		<clipPath id="SVGID_34_" clip-path="url(#SVGID_33_)">
			<use xlink:href="#SVGID_31_"  overflow="visible"/>
		</clipPath>
		<path clip-path="url(#SVGID_34_)" fill-rule="evenodd" clip-rule="evenodd" d="M239.1,55.8H290v52.1h-50.9V55.8z M239.1,55.8"/>
	</g>
	<g>
		<defs>
			<rect id="SVGID_35_" x="-0.6" y="-1" width="405" height="149"/>
		</defs>
		<defs>
			<path id="SVGID_36_" d="M324.4,107.2c-4.9-0.6-7.3-0.9-12.2-1.5c-2.4-6.4-3.7-9.7-6.3-16.1c-1.4,0.6-2.1,0.9-3.5,1.5
				c-0.6,5.3-0.9,8-1.4,13.3c-4.4-0.5-6.5-0.7-10.9-1.1c1.3-13.3,2.5-26.5,3.8-39.8c4.5,0.4,6.8,0.7,11.4,1.1
				c-0.7,6.9-1.1,10.4-1.8,17.3c0.7-1,2-2.6,4-4.7c4-4.5,6-6.7,10.1-11.2c4.9,0.6,7.4,0.9,12.3,1.5c-6.2,6.4-9.3,9.6-15.3,16.1
				C318.6,93.1,320.6,97.8,324.4,107.2"/>
		</defs>
		<clipPath id="SVGID_37_">
			<use xlink:href="#SVGID_35_"  overflow="visible"/>
		</clipPath>
		<clipPath id="SVGID_38_" clip-path="url(#SVGID_37_)">
			<use xlink:href="#SVGID_36_"  overflow="visible"/>
		</clipPath>
		<path clip-path="url(#SVGID_38_)" fill-rule="evenodd" clip-rule="evenodd" d="M285.1,58.6h49.7v53.6h-49.7V58.6z M285.1,58.6"/>
	</g>
	<g>
		<defs>
			<rect id="SVGID_39_" x="-0.6" y="-1" width="405" height="149"/>
		</defs>
		<defs>
			<path id="SVGID_40_" d="M353.3,111.4c-9.5-1.5-14.2-2.2-23.7-3.5c1.8-13.2,3.6-26.4,5.4-39.6c9.9,1.4,14.9,2.1,24.7,3.7
				c-0.6,3.4-0.8,5.1-1.4,8.5c-5.3-0.9-8-1.3-13.3-2.1c-0.4,2.5-0.6,3.7-0.9,6.2c4.9,0.7,7.4,1.1,12.3,1.9c-0.6,3.4-0.8,5.1-1.4,8.5
				c-4.9-0.8-7.3-1.2-12.2-1.9c-0.4,3-0.7,4.5-1.1,7.5c5.2,0.8,7.8,1.2,13,2C354.1,106.2,353.8,108,353.3,111.4"/>
		</defs>
		<clipPath id="SVGID_41_">
			<use xlink:href="#SVGID_39_"  overflow="visible"/>
		</clipPath>
		<clipPath id="SVGID_42_" clip-path="url(#SVGID_41_)">
			<use xlink:href="#SVGID_40_"  overflow="visible"/>
		</clipPath>
		<path clip-path="url(#SVGID_42_)" fill-rule="evenodd" clip-rule="evenodd" d="M324.5,63.3h40.2v53.1h-40.2V63.3z M324.5,63.3"/>
	</g>
	<g>
		<defs>
			<rect id="SVGID_43_" x="-0.6" y="-1" width="405" height="149"/>
		</defs>
		<defs>
			<path id="SVGID_44_" d="M379.9,90.6c3.9-5.3,5.9-7.9,9.9-13.2c4.8,0.9,7.3,1.4,12.1,2.4c-7.4,8.4-11.1,12.7-18.2,21.2
				c-1.2,6.1-1.8,9.2-3,15.3c-4.3-0.8-6.5-1.2-10.8-2c1.1-6,1.6-9,2.7-15c-3.6-10.7-5.4-16-9.3-26.6c4.9,0.8,7.3,1.2,12.2,2.1
				C377.3,81.1,378.2,84.2,379.9,90.6"/>
		</defs>
		<clipPath id="SVGID_45_">
			<use xlink:href="#SVGID_43_"  overflow="visible"/>
		</clipPath>
		<clipPath id="SVGID_46_" clip-path="url(#SVGID_45_)">
			<use xlink:href="#SVGID_44_"  overflow="visible"/>
		</clipPath>
		<path clip-path="url(#SVGID_46_)" fill-rule="evenodd" clip-rule="evenodd" d="M358.3,67.6h48.6v53.7h-48.6V67.6z M358.3,67.6"/>
	</g>
	<path d="M190.9,126.7c0.6,0.2,1.3,0.5,1.9,0.8l1.4-3.6c-1.7-0.8-3.5-1.2-5.3-1.2c-1.7,0-3.2,0.4-4.4,1.1c-1.3,0.7-2.2,1.8-2.9,3.1
		c-0.7,1.3-1,2.9-1,4.7c0,2.8,0.7,5,2.1,6.5c1.4,1.5,3.4,2.2,5.9,2.2c1.8,0,3.4-0.3,4.9-0.9v-3.9c-0.7,0.3-1.4,0.6-2.1,0.8
		c-0.7,0.2-1.4,0.3-2.2,0.3c-2.5,0-3.8-1.6-3.8-4.9c0-1.6,0.3-2.8,0.9-3.7c0.6-0.9,1.5-1.4,2.6-1.4
		C189.6,126.4,190.3,126.5,190.9,126.7L190.9,126.7z M208.4,129.7c-0.5-1-1.3-1.8-2.3-2.4c-1-0.6-2.2-0.8-3.5-0.8
		c-2.1,0-3.7,0.6-4.9,1.8c-1.2,1.2-1.8,2.9-1.8,5c0,2.1,0.6,3.8,1.8,5c1.2,1.2,2.8,1.9,4.8,1.9c2.1,0,3.7-0.6,4.9-1.8
		c1.2-1.2,1.8-2.9,1.8-5.1C209.2,131.9,209,130.7,208.4,129.7L208.4,129.7z M201.1,130.8c0.3-0.6,0.8-0.9,1.5-0.9
		c0.7,0,1.2,0.3,1.5,0.9c0.3,0.6,0.4,1.4,0.4,2.6c0,1.1-0.1,2-0.4,2.6s-0.8,0.9-1.5,0.9c-0.7,0-1.2-0.3-1.5-0.9s-0.5-1.5-0.5-2.6
		C200.6,132.2,200.8,131.3,201.1,130.8L201.1,130.8z"/>
	<path fill="none" stroke="#000000" stroke-width="3" stroke-linecap="square" stroke-miterlimit="10" d="M277.4,132h-57.7
		 M169.4,132h-57.7"/>
	<g>
		<defs>
			<rect id="SVGID_47_" x="-0.6" y="-1" width="405" height="149"/>
		</defs>
		<defs>
			<path id="SVGID_48_" d="M189.4,15v-4c0-1.1,0.9-2,2-2h15c1.1,0,2,0.9,2,2v4v3h-19V15L189.4,15z M189.4,15"/>
		</defs>
		<defs>
			<rect id="SVGID_49_" x="-0.6" y="-644" width="612" height="792"/>
		</defs>
		<clipPath id="SVGID_50_">
			<use xlink:href="#SVGID_47_"  overflow="visible"/>
		</clipPath>
		<clipPath id="SVGID_51_" clip-path="url(#SVGID_50_)">
			<use xlink:href="#SVGID_48_"  overflow="visible"/>
		</clipPath>
		<clipPath id="SVGID_52_" clip-path="url(#SVGID_51_)">
			<use xlink:href="#SVGID_49_"  overflow="visible"/>
		</clipPath>
		<path clip-path="url(#SVGID_52_)" fill-rule="evenodd" clip-rule="evenodd" d="M184.4,4h29v19h-29V4z M184.4,4"/>
	</g>
	<g>
		<defs>
			<rect id="SVGID_53_" x="-0.6" y="-1" width="405" height="149"/>
		</defs>
		<defs>
			<path id="SVGID_54_" d="M192.4,2.5V2c0-1.1,0.9-2,2-2h9c1.1,0,2,0.9,2,2v0.5V7h-13V2.5L192.4,2.5z M192.4,2.5"/>
		</defs>
		<defs>
			<rect id="SVGID_55_" x="-0.6" y="-644" width="612" height="792"/>
		</defs>
		<clipPath id="SVGID_56_">
			<use xlink:href="#SVGID_53_"  overflow="visible"/>
		</clipPath>
		<clipPath id="SVGID_57_" clip-path="url(#SVGID_56_)">
			<use xlink:href="#SVGID_54_"  overflow="visible"/>
		</clipPath>
		<clipPath id="SVGID_58_" clip-path="url(#SVGID_57_)">
			<use xlink:href="#SVGID_55_"  overflow="visible"/>
		</clipPath>
		<path clip-path="url(#SVGID_58_)" fill-rule="evenodd" clip-rule="evenodd" d="M187.4-5h23v17h-23V-5z M187.4-5"/>
	</g>
	<g>
		<defs>
			<rect id="SVGID_59_" x="-0.6" y="-1" width="405" height="149"/>
		</defs>
		<defs>
			<path id="SVGID_60_" d="M186.4,27v-5c0-1.1,0.9-2,2-2h21c1.1,0,2,0.9,2,2v5v4h-25V27L186.4,27z M186.4,27"/>
		</defs>
		<defs>
			<rect id="SVGID_61_" x="-0.6" y="-644" width="612" height="792"/>
		</defs>
		<clipPath id="SVGID_62_">
			<use xlink:href="#SVGID_59_"  overflow="visible"/>
		</clipPath>
		<clipPath id="SVGID_63_" clip-path="url(#SVGID_62_)">
			<use xlink:href="#SVGID_60_"  overflow="visible"/>
		</clipPath>
		<clipPath id="SVGID_64_" clip-path="url(#SVGID_63_)">
			<use xlink:href="#SVGID_61_"  overflow="visible"/>
		</clipPath>
		<path clip-path="url(#SVGID_64_)" fill-rule="evenodd" clip-rule="evenodd" d="M181.4,15h35v21h-35V15z M181.4,15"/>
	</g>
	<g>
		<defs>
			<rect id="SVGID_65_" x="-0.6" y="-1" width="405" height="149"/>
		</defs>
		<defs>
			<path id="SVGID_66_" d="M197.4,31v7h3v-7H197.4L197.4,31z M197.4,31"/>
		</defs>
		<defs>
			<rect id="SVGID_67_" x="-0.6" y="-644" width="612" height="792"/>
		</defs>
		<clipPath id="SVGID_68_">
			<use xlink:href="#SVGID_65_"  overflow="visible"/>
		</clipPath>
		<clipPath id="SVGID_69_" clip-path="url(#SVGID_68_)">
			<use xlink:href="#SVGID_66_"  overflow="visible"/>
		</clipPath>
		<clipPath id="SVGID_70_" clip-path="url(#SVGID_69_)">
			<use xlink:href="#SVGID_67_"  overflow="visible"/>
		</clipPath>
		<rect x="192.4" y="24.5" clip-path="url(#SVGID_70_)" fill-rule="evenodd" clip-rule="evenodd" width="13" height="17.5"/>
		<path clip-path="url(#SVGID_70_)" fill-rule="evenodd" clip-rule="evenodd" d="M192.4,25.5"/>
	</g>
	<g>
		<defs>
			<rect id="SVGID_71_" x="-0.6" y="-1" width="405" height="149"/>
		</defs>
		<defs>
			<path id="SVGID_72_" d="M193.4,37v3h11v-3H193.4L193.4,37z M193.4,37"/>
		</defs>
		<defs>
			<rect id="SVGID_73_" x="-0.6" y="-644" width="612" height="792"/>
		</defs>
		<clipPath id="SVGID_74_">
			<use xlink:href="#SVGID_71_"  overflow="visible"/>
		</clipPath>
		<clipPath id="SVGID_75_" clip-path="url(#SVGID_74_)">
			<use xlink:href="#SVGID_72_"  overflow="visible"/>
		</clipPath>
		<clipPath id="SVGID_76_" clip-path="url(#SVGID_75_)">
			<use xlink:href="#SVGID_73_"  overflow="visible"/>
		</clipPath>
		<path clip-path="url(#SVGID_76_)" fill-rule="evenodd" clip-rule="evenodd" d="M188.4,32h21v13h-21V32z M188.4,32"/>
	</g>
</g>
<g id="Text_Only">
	<g>
		<defs>
			<rect id="SVGID_81_" x="0" y="145" width="405" height="149"/>
		</defs>
		<defs>
			<path id="SVGID_82_" d="M68.3,254.1c-1.2-2.9-1.8-4.3-3-7.1c-5.2,0.7-7.9,1.1-13.1,1.9c-0.4,3.1-0.5,4.6-0.9,7.7
				c-4.7,0.7-7.1,1.1-11.8,1.9c2.1-13.9,4.4-27.9,6.8-41.7c6-0.9,9-1.4,15-2.2c6.4,12.6,12.7,25.2,18.8,38
				C75.4,253.1,73.1,253.4,68.3,254.1L68.3,254.1L68.3,254.1z M61.8,238.5c-1.1-2.5-1.6-3.7-2.7-6.2c-0.6-1.4-1.4-3.2-2.3-5.4
				c-0.9-2.2-1.9-4.7-1.9-4.7c0,0-0.1,2.5-0.3,4.7c-0.2,2.2-0.7,6.5-1.4,12.9C56.6,239.2,58.3,239,61.8,238.5L61.8,238.5L61.8,238.5
				z M61.8,238.5"/>
		</defs>
		<defs>
			<rect id="SVGID_83_" x="0" y="-498" width="612" height="792"/>
		</defs>
		<clipPath id="SVGID_79_">
			<use xlink:href="#SVGID_81_"  overflow="visible"/>
		</clipPath>
		<clipPath id="SVGID_80_" clip-path="url(#SVGID_79_)">
			<use xlink:href="#SVGID_82_"  overflow="visible"/>
		</clipPath>
		<clipPath id="SVGID_84_" clip-path="url(#SVGID_80_)">
			<use xlink:href="#SVGID_83_"  overflow="visible"/>
		</clipPath>
	</g>
	<g>
		<defs>
			<rect id="SVGID_99_" x="0" y="145" width="405" height="149"/>
		</defs>
		<defs>
			<path id="SVGID_100_" d="M210.6,205.2c5.9,0.1,8.8,0.1,14.6,0.3c5.7,0.1,9.9,1.1,12.6,2.8c2.7,1.7,4,4.3,3.8,7.7
				c-0.1,2.2-0.8,4.1-2,5.7c-1.3,1.5-2.9,2.5-4.8,2.9c0,0.1,0,0.2,0,0.3c2.5,0.7,4.3,1.9,5.4,3.5c1.1,1.6,1.6,3.6,1.5,6
				c-0.2,3.6-1.7,6.4-4.5,8.4c-2.8,2-6.6,2.9-11.4,2.8c-6.3-0.2-9.4-0.2-15.7-0.3C210.3,231.8,210.5,218.5,210.6,205.2L210.6,205.2
				L210.6,205.2z M221.6,220.7c1.3,0,2,0,3.4,0.1c1.6,0,2.9-0.2,3.7-0.9s1.4-1.5,1.4-2.8c0.1-2.2-1.7-3.4-5.2-3.5
				c-1.3,0-1.9,0-3.2-0.1L221.6,220.7L221.6,220.7L221.6,220.7z M221.5,228.6c-0.1,3.4-0.1,5-0.2,8.4c1.5,0,2.3,0.1,3.9,0.1
				c3.4,0.1,5.2-1.3,5.3-4.1c0-1.3-0.4-2.4-1.3-3.1c-0.9-0.7-2.2-1.1-4-1.2C223.7,228.6,222.9,228.6,221.5,228.6L221.5,228.6
				L221.5,228.6z M221.5,228.6"/>
		</defs>
		<defs>
			<rect id="SVGID_101_" x="0" y="-498" width="612" height="792"/>
		</defs>
		<clipPath id="SVGID_85_">
			<use xlink:href="#SVGID_99_"  overflow="visible"/>
		</clipPath>
		<clipPath id="SVGID_86_" clip-path="url(#SVGID_85_)">
			<use xlink:href="#SVGID_100_"  overflow="visible"/>
		</clipPath>
		<clipPath id="SVGID_89_" clip-path="url(#SVGID_86_)">
			<use xlink:href="#SVGID_101_"  overflow="visible"/>
		</clipPath>
	</g>
	<g>
		<defs>
			<rect id="SVGID_105_" x="0" y="145" width="405" height="149"/>
		</defs>
		<defs>
			<path id="SVGID_106_" d="M273.7,247.9c-0.6-3-0.8-4.6-1.4-7.6c-5.3-0.4-7.9-0.6-13.2-0.9c-1,2.9-1.5,4.4-2.5,7.3
				c-4.8-0.3-7.2-0.4-12-0.6c5-13.2,10.2-26.3,15.6-39.3c6,0.4,9.1,0.6,15.1,1c3.6,13.7,7,27.3,10.2,41.1
				C280.9,248.4,278.5,248.2,273.7,247.9L273.7,247.9L273.7,247.9z M270.7,231.3c-0.5-2.7-0.8-4-1.3-6.7c-0.3-1.5-0.7-3.4-1.1-5.7
				c-0.4-2.3-0.8-5-0.8-5c0,0-0.7,2.4-1.3,4.5c-0.6,2.1-2,6.2-4.1,12.4C265.5,230.9,267.2,231,270.7,231.3L270.7,231.3L270.7,231.3z
				 M270.7,231.3"/>
		</defs>
		<defs>
			<rect id="SVGID_107_" x="0" y="-498" width="612" height="792"/>
		</defs>
		<clipPath id="SVGID_90_">
			<use xlink:href="#SVGID_105_"  overflow="visible"/>
		</clipPath>
		<clipPath id="SVGID_93_" clip-path="url(#SVGID_90_)">
			<use xlink:href="#SVGID_106_"  overflow="visible"/>
		</clipPath>
		<clipPath id="SVGID_94_" clip-path="url(#SVGID_93_)">
			<use xlink:href="#SVGID_107_"  overflow="visible"/>
		</clipPath>
	</g>
</g>
<g id="Cake_Only_Lrg">
	<g>
		<g>
			<defs>
				<rect id="SVGID_123_" x="-17.6" y="323" width="25" height="40"/>
			</defs>
			<defs>
				<path id="SVGID_124_" d="M-14.6,338v-4c0-1.1,0.9-2,2-2h15c1.1,0,2,0.9,2,2v4v3h-19V338L-14.6,338z M-14.6,338"/>
			</defs>
			<defs>
				<rect id="SVGID_125_" x="-17.6" y="-429" width="612" height="792"/>
			</defs>
			<clipPath id="SVGID_97_">
				<use xlink:href="#SVGID_123_"  overflow="visible"/>
			</clipPath>
			<clipPath id="SVGID_98_" clip-path="url(#SVGID_97_)">
				<use xlink:href="#SVGID_124_"  overflow="visible"/>
			</clipPath>
			<clipPath id="SVGID_102_" clip-path="url(#SVGID_98_)">
				<use xlink:href="#SVGID_125_"  overflow="visible"/>
			</clipPath>
		</g>
		<g>
			<defs>
				<rect id="SVGID_129_" x="-17.6" y="323" width="25" height="40"/>
			</defs>
			<defs>
				<path id="SVGID_130_" d="M-11.6,325.5V325c0-1.1,0.9-2,2-2h9c1.1,0,2,0.9,2,2v0.5v4.5h-13V325.5L-11.6,325.5z M-11.6,325.5"/>
			</defs>
			<defs>
				<rect id="SVGID_131_" x="-17.6" y="-429" width="612" height="792"/>
			</defs>
			<clipPath id="SVGID_103_">
				<use xlink:href="#SVGID_129_"  overflow="visible"/>
			</clipPath>
			<clipPath id="SVGID_104_" clip-path="url(#SVGID_103_)">
				<use xlink:href="#SVGID_130_"  overflow="visible"/>
			</clipPath>
			<clipPath id="SVGID_108_" clip-path="url(#SVGID_104_)">
				<use xlink:href="#SVGID_131_"  overflow="visible"/>
			</clipPath>
		</g>
		<g>
			<defs>
				<rect id="SVGID_135_" x="-17.6" y="323" width="25" height="40"/>
			</defs>
			<defs>
				<path id="SVGID_136_" d="M-17.6,350v-5c0-1.1,0.9-2,2-2h21c1.1,0,2,0.9,2,2v5v4h-25V350L-17.6,350z M-17.6,350"/>
			</defs>
			<defs>
				<rect id="SVGID_137_" x="-17.6" y="-429" width="612" height="792"/>
			</defs>
			<clipPath id="SVGID_109_">
				<use xlink:href="#SVGID_135_"  overflow="visible"/>
			</clipPath>
			<clipPath id="SVGID_110_" clip-path="url(#SVGID_109_)">
				<use xlink:href="#SVGID_136_"  overflow="visible"/>
			</clipPath>
			<clipPath id="SVGID_113_" clip-path="url(#SVGID_110_)">
				<use xlink:href="#SVGID_137_"  overflow="visible"/>
			</clipPath>
		</g>
		<g>
			<defs>
				<rect id="SVGID_141_" x="-17.6" y="323" width="25" height="40"/>
			</defs>
			<defs>
				<path id="SVGID_142_" d="M-6.6,354v7h3v-7H-6.6L-6.6,354z M-6.6,354"/>
			</defs>
			<defs>
				<rect id="SVGID_143_" x="-17.6" y="-429" width="612" height="792"/>
			</defs>
			<clipPath id="SVGID_114_">
				<use xlink:href="#SVGID_141_"  overflow="visible"/>
			</clipPath>
			<clipPath id="SVGID_117_" clip-path="url(#SVGID_114_)">
				<use xlink:href="#SVGID_142_"  overflow="visible"/>
			</clipPath>
			<clipPath id="SVGID_118_" clip-path="url(#SVGID_117_)">
				<use xlink:href="#SVGID_143_"  overflow="visible"/>
			</clipPath>
		</g>
		<g>
			<defs>
				<rect id="SVGID_147_" x="-17.6" y="323" width="25" height="40"/>
			</defs>
			<defs>
				<path id="SVGID_148_" d="M-10.6,360v3h11v-3H-10.6L-10.6,360z M-10.6,360"/>
			</defs>
			<defs>
				<rect id="SVGID_149_" x="-17.6" y="-429" width="612" height="792"/>
			</defs>
			<clipPath id="SVGID_121_">
				<use xlink:href="#SVGID_147_"  overflow="visible"/>
			</clipPath>
			<clipPath id="SVGID_122_" clip-path="url(#SVGID_121_)">
				<use xlink:href="#SVGID_148_"  overflow="visible"/>
			</clipPath>
			<clipPath id="SVGID_126_" clip-path="url(#SVGID_122_)">
				<use xlink:href="#SVGID_149_"  overflow="visible"/>
			</clipPath>
		</g>
	</g>
</g>
<g id="Cake_Only_Sm">
	<g>
		<g>
			<defs>
				<rect id="SVGID_153_" x="28.2" y="321" width="16" height="25"/>
			</defs>
			<defs>
				<path id="SVGID_154_" d="M30.2,329.5v2.5h12v-2.5V328c0-0.6-0.5-1-1-1h-10c-0.6,0-1,0.4-1,1V329.5L30.2,329.5z M30.2,329.5"/>
			</defs>
			<defs>
				<rect id="SVGID_155_" x="28.2" y="-446" width="612" height="792"/>
			</defs>
			<clipPath id="SVGID_127_">
				<use xlink:href="#SVGID_153_"  overflow="visible"/>
			</clipPath>
			<clipPath id="SVGID_128_" clip-path="url(#SVGID_127_)">
				<use xlink:href="#SVGID_154_"  overflow="visible"/>
			</clipPath>
			<clipPath id="SVGID_132_" clip-path="url(#SVGID_128_)">
				<use xlink:href="#SVGID_155_"  overflow="visible"/>
			</clipPath>
		</g>
		<g>
			<defs>
				<rect id="SVGID_159_" x="28.2" y="321" width="16" height="25"/>
			</defs>
			<defs>
				<path id="SVGID_160_" d="M28.2,337.5V335c0-0.5,0.4-1,1-1h14c0.6,0,1,0.4,1,1v2.5v2.5h-16V337.5L28.2,337.5z M28.2,337.5"/>
			</defs>
			<defs>
				<rect id="SVGID_161_" x="28.2" y="-446" width="612" height="792"/>
			</defs>
			<clipPath id="SVGID_133_">
				<use xlink:href="#SVGID_159_"  overflow="visible"/>
			</clipPath>
			<clipPath id="SVGID_134_" clip-path="url(#SVGID_133_)">
				<use xlink:href="#SVGID_160_"  overflow="visible"/>
			</clipPath>
			<clipPath id="SVGID_138_" clip-path="url(#SVGID_134_)">
				<use xlink:href="#SVGID_161_"  overflow="visible"/>
			</clipPath>
		</g>
		<g>
			<defs>
				<rect id="SVGID_165_" x="28.2" y="321" width="16" height="25"/>
			</defs>
			<defs>
				<path id="SVGID_166_" d="M32.1,322.5v2.5h8v-2.5V322c0-0.6-0.5-1-1-1h-6c-0.6,0-1,0.4-1,1V322.5L32.1,322.5z M32.1,322.5"/>
			</defs>
			<defs>
				<rect id="SVGID_167_" x="28.2" y="-446" width="612" height="792"/>
			</defs>
			<clipPath id="SVGID_139_">
				<use xlink:href="#SVGID_165_"  overflow="visible"/>
			</clipPath>
			<clipPath id="SVGID_140_" clip-path="url(#SVGID_139_)">
				<use xlink:href="#SVGID_166_"  overflow="visible"/>
			</clipPath>
			<clipPath id="SVGID_144_" clip-path="url(#SVGID_140_)">
				<use xlink:href="#SVGID_167_"  overflow="visible"/>
			</clipPath>
		</g>
		<g>
			<defs>
				<rect id="SVGID_171_" x="28.2" y="321" width="16" height="25"/>
			</defs>
			<defs>
				<path id="SVGID_172_" d="M34.9,340v4.3h1.8V340H34.9L34.9,340z M34.9,340"/>
			</defs>
			<defs>
				<rect id="SVGID_173_" x="28.2" y="-446" width="612" height="792"/>
			</defs>
			<clipPath id="SVGID_145_">
				<use xlink:href="#SVGID_171_"  overflow="visible"/>
			</clipPath>
			<clipPath id="SVGID_146_" clip-path="url(#SVGID_145_)">
				<use xlink:href="#SVGID_172_"  overflow="visible"/>
			</clipPath>
			<clipPath id="SVGID_150_" clip-path="url(#SVGID_146_)">
				<use xlink:href="#SVGID_173_"  overflow="visible"/>
			</clipPath>
		</g>
		<g>
			<defs>
				<rect id="SVGID_177_" x="28.2" y="321" width="16" height="25"/>
			</defs>
			<defs>
				<path id="SVGID_178_" d="M32.4,343.7v1.8h6.7v-1.8H32.4L32.4,343.7z M32.4,343.7"/>
			</defs>
			<defs>
				<rect id="SVGID_179_" x="28.2" y="-446" width="612" height="792"/>
			</defs>
			<clipPath id="SVGID_151_">
				<use xlink:href="#SVGID_177_"  overflow="visible"/>
			</clipPath>
			<clipPath id="SVGID_152_" clip-path="url(#SVGID_151_)">
				<use xlink:href="#SVGID_178_"  overflow="visible"/>
			</clipPath>
			<clipPath id="SVGID_156_" clip-path="url(#SVGID_152_)">
				<use xlink:href="#SVGID_179_"  overflow="visible"/>
			</clipPath>
		</g>
	</g>
</g>
<g id="Spacers" display="none">
</g>
</svg>
