<?xml version="1.0" encoding="utf-8"?>
<!-- Generator: Adobe Illustrator 17.1.0, SVG Export Plug-In . SVG Version: 6.00 Build 0)  -->
<!DOCTYPE svg PUBLIC "-//W3C//DTD SVG 1.1//EN" "http://www.w3.org/Graphics/SVG/1.1/DTD/svg11.dtd">
<svg version="1.1" xmlns="http://www.w3.org/2000/svg" xmlns:xlink="http://www.w3.org/1999/xlink" x="0px" y="0px"
	 viewBox="0 0 16 24.5" enable-background="new 0 0 16 24.5" xml:space="preserve">
<g id="Full_Logo">
</g>
<g id="Text_Only">
</g>
<g id="Cake_Only_Lrg">
	<g>
		<g>
			<defs>
				<rect id="SVGID_123_" x="-45.8" y="2" width="25" height="40"/>
			</defs>
			<defs>
				<path id="SVGID_124_" d="M-42.8,17v-4c0-1.1,0.9-2,2-2h15c1.1,0,2,0.9,2,2v4v3h-19V17L-42.8,17z M-42.8,17"/>
			</defs>
			<defs>
				<rect id="SVGID_125_" x="-45.8" y="-750" width="612" height="792"/>
			</defs>
			<clipPath id="SVGID_3_">
				<use xlink:href="#SVGID_123_"  overflow="visible"/>
			</clipPath>
			<clipPath id="SVGID_4_" clip-path="url(#SVGID_3_)">
				<use xlink:href="#SVGID_124_"  overflow="visible"/>
			</clipPath>
			<clipPath id="SVGID_8_" clip-path="url(#SVGID_4_)">
				<use xlink:href="#SVGID_125_"  overflow="visible"/>
			</clipPath>
		</g>
		<g>
			<defs>
				<rect id="SVGID_129_" x="-45.8" y="2" width="25" height="40"/>
			</defs>
			<defs>
				<path id="SVGID_130_" d="M-39.8,4.5V4c0-1.1,0.9-2,2-2h9c1.1,0,2,0.9,2,2v0.5V9h-13V4.5L-39.8,4.5z M-39.8,4.5"/>
			</defs>
			<defs>
				<rect id="SVGID_131_" x="-45.8" y="-750" width="612" height="792"/>
			</defs>
			<clipPath id="SVGID_9_">
				<use xlink:href="#SVGID_129_"  overflow="visible"/>
			</clipPath>
			<clipPath id="SVGID_10_" clip-path="url(#SVGID_9_)">
				<use xlink:href="#SVGID_130_"  overflow="visible"/>
			</clipPath>
			<clipPath id="SVGID_13_" clip-path="url(#SVGID_10_)">
				<use xlink:href="#SVGID_131_"  overflow="visible"/>
			</clipPath>
		</g>
		<g>
			<defs>
				<rect id="SVGID_135_" x="-45.8" y="2" width="25" height="40"/>
			</defs>
			<defs>
				<path id="SVGID_136_" d="M-45.8,29v-5c0-1.1,0.9-2,2-2h21c1.1,0,2,0.9,2,2v5v4h-25V29L-45.8,29z M-45.8,29"/>
			</defs>
			<defs>
				<rect id="SVGID_137_" x="-45.8" y="-750" width="612" height="792"/>
			</defs>
			<clipPath id="SVGID_14_">
				<use xlink:href="#SVGID_135_"  overflow="visible"/>
			</clipPath>
			<clipPath id="SVGID_17_" clip-path="url(#SVGID_14_)">
				<use xlink:href="#SVGID_136_"  overflow="visible"/>
			</clipPath>
			<clipPath id="SVGID_18_" clip-path="url(#SVGID_17_)">
				<use xlink:href="#SVGID_137_"  overflow="visible"/>
			</clipPath>
		</g>
		<g>
			<defs>
				<rect id="SVGID_141_" x="-45.8" y="2" width="25" height="40"/>
			</defs>
			<defs>
				<path id="SVGID_142_" d="M-34.8,33v7h3v-7H-34.8L-34.8,33z M-34.8,33"/>
			</defs>
			<defs>
				<rect id="SVGID_143_" x="-45.8" y="-750" width="612" height="792"/>
			</defs>
			<clipPath id="SVGID_21_">
				<use xlink:href="#SVGID_141_"  overflow="visible"/>
			</clipPath>
			<clipPath id="SVGID_22_" clip-path="url(#SVGID_21_)">
				<use xlink:href="#SVGID_142_"  overflow="visible"/>
			</clipPath>
			<clipPath id="SVGID_26_" clip-path="url(#SVGID_22_)">
				<use xlink:href="#SVGID_143_"  overflow="visible"/>
			</clipPath>
		</g>
		<g>
			<defs>
				<rect id="SVGID_147_" x="-45.8" y="2" width="25" height="40"/>
			</defs>
			<defs>
				<path id="SVGID_148_" d="M-38.8,39v3h11v-3H-38.8L-38.8,39z M-38.8,39"/>
			</defs>
			<defs>
				<rect id="SVGID_149_" x="-45.8" y="-750" width="612" height="792"/>
			</defs>
			<clipPath id="SVGID_27_">
				<use xlink:href="#SVGID_147_"  overflow="visible"/>
			</clipPath>
			<clipPath id="SVGID_28_" clip-path="url(#SVGID_27_)">
				<use xlink:href="#SVGID_148_"  overflow="visible"/>
			</clipPath>
			<clipPath id="SVGID_32_" clip-path="url(#SVGID_28_)">
				<use xlink:href="#SVGID_149_"  overflow="visible"/>
			</clipPath>
		</g>
	</g>
</g>
<g id="Cake_Only_Sm">
	<g>
		<g>
			<defs>
				<rect id="SVGID_153_" x="0" y="0" width="16" height="25"/>
			</defs>
			<defs>
				<path id="SVGID_154_" d="M2,8.5V11h12V8.5V7c0-0.6-0.5-1-1-1H3C2.4,6,2,6.4,2,7V8.5L2,8.5z M2,8.5"/>
			</defs>
			<defs>
				<rect id="SVGID_155_" x="0" y="-767" width="612" height="792"/>
			</defs>
			<clipPath id="SVGID_33_">
				<use xlink:href="#SVGID_153_"  overflow="visible"/>
			</clipPath>
			<clipPath id="SVGID_34_" clip-path="url(#SVGID_33_)">
				<use xlink:href="#SVGID_154_"  overflow="visible"/>
			</clipPath>
			<clipPath id="SVGID_37_" clip-path="url(#SVGID_34_)">
				<use xlink:href="#SVGID_155_"  overflow="visible"/>
			</clipPath>
			<path clip-path="url(#SVGID_37_)" fill-rule="evenodd" clip-rule="evenodd" d="M-3,1h22v15H-3V1z M-3,1"/>
		</g>
		<g>
			<defs>
				<rect id="SVGID_159_" x="0" y="0" width="16" height="25"/>
			</defs>
			<defs>
				<path id="SVGID_160_" d="M0,16.5V14c0-0.5,0.4-1,1-1h14c0.6,0,1,0.4,1,1v2.5V19H0V16.5L0,16.5z M0,16.5"/>
			</defs>
			<defs>
				<rect id="SVGID_161_" x="0" y="-767" width="612" height="792"/>
			</defs>
			<clipPath id="SVGID_38_">
				<use xlink:href="#SVGID_159_"  overflow="visible"/>
			</clipPath>
			<clipPath id="SVGID_41_" clip-path="url(#SVGID_38_)">
				<use xlink:href="#SVGID_160_"  overflow="visible"/>
			</clipPath>
			<clipPath id="SVGID_42_" clip-path="url(#SVGID_41_)">
				<use xlink:href="#SVGID_161_"  overflow="visible"/>
			</clipPath>
			<path clip-path="url(#SVGID_42_)" fill-rule="evenodd" clip-rule="evenodd" d="M-5,8h26v16H-5V8z M-5,8"/>
		</g>
		<g>
			<defs>
				<rect id="SVGID_165_" x="0" y="0" width="16" height="25"/>
			</defs>
			<defs>
				<path id="SVGID_166_" d="M4,1.5V4h8V1.5V1c0-0.6-0.5-1-1-1H5C4.4,0,4,0.4,4,1V1.5L4,1.5z M4,1.5"/>
			</defs>
			<defs>
				<rect id="SVGID_167_" x="0" y="-767" width="612" height="792"/>
			</defs>
			<clipPath id="SVGID_45_">
				<use xlink:href="#SVGID_165_"  overflow="visible"/>
			</clipPath>
			<clipPath id="SVGID_46_" clip-path="url(#SVGID_45_)">
				<use xlink:href="#SVGID_166_"  overflow="visible"/>
			</clipPath>
			<clipPath id="SVGID_50_" clip-path="url(#SVGID_46_)">
				<use xlink:href="#SVGID_167_"  overflow="visible"/>
			</clipPath>
			<path clip-path="url(#SVGID_50_)" fill-rule="evenodd" clip-rule="evenodd" d="M-1-5h18V9H-1V-5z M-1-5"/>
		</g>
		<g>
			<defs>
				<rect id="SVGID_171_" x="0" y="0" width="16" height="25"/>
			</defs>
			<defs>
				<path id="SVGID_172_" d="M6.7,19v4.3h1.8V19H6.7L6.7,19z M6.7,19"/>
			</defs>
			<defs>
				<rect id="SVGID_173_" x="0" y="-767" width="612" height="792"/>
			</defs>
			<clipPath id="SVGID_51_">
				<use xlink:href="#SVGID_171_"  overflow="visible"/>
			</clipPath>
			<clipPath id="SVGID_52_" clip-path="url(#SVGID_51_)">
				<use xlink:href="#SVGID_172_"  overflow="visible"/>
			</clipPath>
			<clipPath id="SVGID_56_" clip-path="url(#SVGID_52_)">
				<use xlink:href="#SVGID_173_"  overflow="visible"/>
			</clipPath>
			<path clip-path="url(#SVGID_56_)" fill-rule="evenodd" clip-rule="evenodd" d="M1.7,14h11.8v14.3H1.7V14z M1.7,14"/>
		</g>
		<g>
			<defs>
				<rect id="SVGID_177_" x="0" y="0" width="16" height="25"/>
			</defs>
			<defs>
				<path id="SVGID_178_" d="M4.3,22.7v1.8H11v-1.8H4.3L4.3,22.7z M4.3,22.7"/>
			</defs>
			<defs>
				<rect id="SVGID_179_" x="0" y="-767" width="612" height="792"/>
			</defs>
			<clipPath id="SVGID_57_">
				<use xlink:href="#SVGID_177_"  overflow="visible"/>
			</clipPath>
			<clipPath id="SVGID_58_" clip-path="url(#SVGID_57_)">
				<use xlink:href="#SVGID_178_"  overflow="visible"/>
			</clipPath>
			<clipPath id="SVGID_62_" clip-path="url(#SVGID_58_)">
				<use xlink:href="#SVGID_179_"  overflow="visible"/>
			</clipPath>
			<path clip-path="url(#SVGID_62_)" fill-rule="evenodd" clip-rule="evenodd" d="M-0.7,17.7H16v11.8H-0.7V17.7z M-0.7,17.7"/>
		</g>
	</g>
</g>
<g id="Spacers" display="none">
</g>
</svg>
