<?xml version="1.0" encoding="utf-8"?>
<!-- Generator: Adobe Illustrator 18.0.0, SVG Export Plug-In . SVG Version: 6.00 Build 0)  -->
<!DOCTYPE svg PUBLIC "-//W3C//DTD SVG 1.1//EN" "http://www.w3.org/Graphics/SVG/1.1/DTD/svg11.dtd">
<svg version="1.1" xmlns="http://www.w3.org/2000/svg" xmlns:xlink="http://www.w3.org/1999/xlink" x="0px" y="0px"
	 width="401.708px" height="140.234px" viewBox="0 0 401.708 140.234" enable-background="new 0 0 401.708 140.234"
	 xml:space="preserve">
<g id="Full_Logo">
	<path d="M190.767,126.723c0.633,0.203,1.266,0.453,1.898,0.75l1.418-3.645c-1.688-0.805-3.457-1.207-5.309-1.207
		c-1.695,0-3.17,0.361-4.424,1.084c-1.254,0.723-2.215,1.756-2.883,3.1c-0.668,1.344-1.002,2.902-1.002,4.676
		c0,2.836,0.689,5.004,2.068,6.504c1.379,1.5,3.361,2.25,5.947,2.25c1.805,0,3.422-0.316,4.852-0.949v-3.914
		c-0.719,0.297-1.434,0.551-2.145,0.762c-0.711,0.211-1.445,0.316-2.203,0.316c-2.508,0-3.762-1.648-3.762-4.945
		c0-1.586,0.309-2.83,0.926-3.732c0.617-0.902,1.477-1.354,2.578-1.354C189.454,126.418,190.134,126.52,190.767,126.723
		L190.767,126.723z M208.269,129.705c-0.543-1.035-1.315-1.83-2.314-2.385c-1-0.555-2.152-0.832-3.457-0.832
		c-2.109,0-3.748,0.6-4.916,1.799c-1.168,1.199-1.752,2.881-1.752,5.045c0,2.117,0.596,3.797,1.787,5.039
		c1.191,1.242,2.795,1.863,4.811,1.863c2.102,0,3.736-0.607,4.904-1.822c1.168-1.215,1.752-2.908,1.752-5.08
		C209.083,131.949,208.812,130.74,208.269,129.705L208.269,129.705z M200.939,130.76c0.305-0.574,0.809-0.861,1.512-0.861
		c0.719,0,1.226,0.289,1.523,0.867c0.297,0.578,0.445,1.434,0.445,2.566c0,1.141-0.146,2.01-0.439,2.607s-0.795,0.896-1.506,0.896
		c-0.719,0-1.23-0.299-1.535-0.896s-0.457-1.467-0.457-2.607C200.482,132.191,200.634,131.334,200.939,130.76L200.939,130.76z"/>
	<path fill="none" stroke="#000000" stroke-width="3" stroke-linecap="square" stroke-miterlimit="10" d="M277.247,132h-57.722
		 M169.247,132h-57.722"/>
	<g>
		<defs>
			<path id="SVGID_1_" d="M189.247,14.968V11c0-1.095,0.894-2,1.997-2h15.005c1.107,0,1.997,0.895,1.997,2v3.968V18h-19V14.968
				L189.247,14.968z M189.247,14.968"/>
		</defs>
		<clipPath id="SVGID_2_">
			<use xlink:href="#SVGID_1_"  overflow="visible"/>
		</clipPath>
		<path clip-path="url(#SVGID_2_)" fill-rule="evenodd" clip-rule="evenodd" d="M184.247,4h29v19h-29V4z M184.247,4"/>
	</g>
	<g>
		<defs>
			<path id="SVGID_3_" d="M192.247,2.5V2.005c0-1.111,0.897-2.005,2.003-2.005h8.994c1.109,0,2.003,0.898,2.003,2.005V2.5V7h-13V2.5
				L192.247,2.5z M192.247,2.5"/>
		</defs>
		<clipPath id="SVGID_4_">
			<use xlink:href="#SVGID_3_"  overflow="visible"/>
		</clipPath>
		<path clip-path="url(#SVGID_4_)" fill-rule="evenodd" clip-rule="evenodd" d="M187.247-5h23v17h-23V-5z"/>
	</g>
	<g>
		<defs>
			<path id="SVGID_5_" d="M186.232,26.991v-4.99c0-1.102,0.898-2.001,2.005-2.001h21.007c1.115,0,2.005,0.896,2.005,2.001v4.99
				v3.988h-25.017V26.991L186.232,26.991z M186.232,26.991"/>
		</defs>
		<clipPath id="SVGID_6_">
			<use xlink:href="#SVGID_5_"  overflow="visible"/>
		</clipPath>
		<path clip-path="url(#SVGID_6_)" fill-rule="evenodd" clip-rule="evenodd" d="M181.232,15h35.017v20.979h-35.017V15z M181.232,15"
			/>
	</g>
	<g>
		<defs>
			<path id="SVGID_7_" d="M197.247,31v7h3v-7H197.247L197.247,31z M197.247,31"/>
		</defs>
		<clipPath id="SVGID_8_">
			<use xlink:href="#SVGID_7_"  overflow="visible"/>
		</clipPath>
		<path clip-path="url(#SVGID_8_)" fill-rule="evenodd" clip-rule="evenodd" d="M192.247,26h13v17h-13V26z M192.247,26"/>
	</g>
	<g>
		<defs>
			<path id="SVGID_9_" d="M193.247,37v3h11v-3H193.247L193.247,37z M193.247,37"/>
		</defs>
		<clipPath id="SVGID_10_">
			<use xlink:href="#SVGID_9_"  overflow="visible"/>
		</clipPath>
		<path clip-path="url(#SVGID_10_)" fill-rule="evenodd" clip-rule="evenodd" d="M188.247,32h21v13h-21V32z M188.247,32"/>
	</g>
	<g>
		<defs>
			<path id="SVGID_11_" d="M67.586,108.075c-1.201-2.857-1.804-4.285-3.018-7.138c-5.241,0.734-7.859,1.12-13.093,1.925
				c-0.357,3.085-0.531,4.627-0.875,7.712c-4.743,0.741-7.113,1.126-11.848,1.926c2.098-13.942,4.379-27.856,6.841-41.739
				c6.002-0.93,9.005-1.372,15.019-2.211c6.437,12.572,12.707,25.229,18.808,37.967C74.683,107.11,72.316,107.421,67.586,108.075
				L67.586,108.075L67.586,108.075z M61.05,92.492c-1.074-2.496-1.613-3.744-2.696-6.238c-0.62-1.382-1.393-3.175-2.321-5.378
				c-0.928-2.203-1.898-4.748-1.898-4.748c-0.015,0.002-0.145,2.507-0.327,4.689c-0.183,2.181-0.669,6.497-1.41,12.947
				C55.857,93.241,57.587,92.986,61.05,92.492L61.05,92.492L61.05,92.492z M61.05,92.492"/>
		</defs>
		<clipPath id="SVGID_12_">
			<use xlink:href="#SVGID_11_"  overflow="visible"/>
		</clipPath>
		<path clip-path="url(#SVGID_12_)" fill-rule="evenodd" clip-rule="evenodd" d="M33.752,63.549H84.42v53.95H33.752V63.549z
			 M33.752,63.549"/>
	</g>
	<g>
		<defs>
			<path id="SVGID_13_" d="M209.884,59.16c5.859,0.062,8.79,0.116,14.649,0.265c5.706,0.144,9.916,1.103,12.614,2.819
				c2.697,1.715,3.963,4.283,3.818,7.686c-0.094,2.238-0.772,4.123-2.023,5.659c-1.252,1.535-2.851,2.494-4.801,2.879
				c-0.004,0.109-0.005,0.164-0.01,0.272c2.53,0.747,4.334,1.914,5.411,3.49c1.077,1.576,1.559,3.584,1.454,6.022
				c-0.157,3.621-1.667,6.411-4.504,8.388c-2.836,1.977-6.612,2.885-11.352,2.757c-6.275-0.17-9.413-0.23-15.688-0.297
				C209.596,85.786,209.74,72.473,209.884,59.16L209.884,59.16L209.884,59.16z M220.889,74.669c1.346,0.03,2.019,0.046,3.365,0.08
				c1.602,0.04,2.851-0.242,3.747-0.854s1.365-1.545,1.403-2.802c0.069-2.238-1.661-3.418-5.194-3.506
				c-1.265-0.032-1.896-0.047-3.161-0.076L220.889,74.669L220.889,74.669L220.889,74.669z M220.713,82.562
				c-0.075,3.354-0.112,5.032-0.186,8.386c1.546,0.034,2.319,0.053,3.865,0.093c3.429,0.089,5.188-1.273,5.279-4.113
				c0.042-1.329-0.388-2.363-1.29-3.101c-0.904-0.738-2.236-1.132-3.993-1.178C222.918,82.613,222.184,82.595,220.713,82.562
				L220.713,82.562L220.713,82.562z M220.713,82.562"/>
		</defs>
		<clipPath id="SVGID_14_">
			<use xlink:href="#SVGID_13_"  overflow="visible"/>
		</clipPath>
		<path clip-path="url(#SVGID_14_)" fill-rule="evenodd" clip-rule="evenodd" d="M204.451,54.16h41.559v50.249h-41.559V54.16z
			 M204.451,54.16"/>
	</g>
	<path fill-rule="evenodd" clip-rule="evenodd" d="M201.749,97.576"/>
</g>
<g id="Layer_2">
	<g>
		<defs>
			<path id="SVGID_15_" d="M17.99,84.246c-2.644,0.49-4.51,1.916-5.586,4.265c-1.076,2.348-1.252,5.339-0.542,8.968
				c1.476,7.544,5.146,10.733,11.023,9.648c1.776-0.328,3.452-0.882,5.034-1.666c1.58-0.782,3.157-1.661,4.729-2.637
				c0.628,3.596,0.942,5.394,1.571,8.99c-3.079,2.032-6.702,3.427-10.892,4.207c-6.003,1.116-10.927,0.309-14.833-2.473
				c-3.906-2.782-6.556-7.392-7.902-13.866c-0.841-4.049-0.79-7.771,0.178-11.167c0.967-3.394,2.799-6.222,5.496-8.47
				c2.697-2.247,6.109-3.761,10.214-4.522c4.483-0.83,8.944-0.67,13.346,0.477c-0.793,3.585-1.184,5.378-1.952,8.964
				c-1.637-0.416-3.258-0.72-4.862-0.913C21.41,83.857,19.734,83.923,17.99,84.246"/>
		</defs>
		<clipPath id="SVGID_16_">
			<use xlink:href="#SVGID_15_"  overflow="visible"/>
		</clipPath>
		<rect x="0" y="74.737" clip-path="url(#SVGID_16_)" fill-rule="evenodd" clip-rule="evenodd" width="44.219" height="51.505"/>
	</g>
	<g>
		<defs>
			<path id="SVGID_17_" d="M118.835,102.654c-4.906,0.41-7.358,0.631-12.259,1.105c-3.769-5.774-5.677-8.651-9.545-14.388
				c-1.225,0.898-1.836,1.348-3.056,2.25c0.58,5.312,0.87,7.969,1.449,13.281c-4.359,0.473-6.538,0.721-10.893,1.244
				c-1.597-13.22-3.192-26.438-4.789-39.657c4.537-0.544,6.807-0.803,11.349-1.296c0.752,6.899,1.129,10.348,1.882,17.247
				c0.445-1.128,1.395-2.945,2.864-5.443c2.956-5.232,4.456-7.843,7.5-13.054c4.947-0.475,7.421-0.697,12.372-1.11
				c-4.683,7.574-6.977,11.375-11.466,19.001C110.193,90.118,113.112,94.283,118.835,102.654"/>
		</defs>
		<clipPath id="SVGID_18_">
			<use xlink:href="#SVGID_17_"  overflow="visible"/>
		</clipPath>
		<rect x="74.743" y="58" clip-path="url(#SVGID_18_)" fill-rule="evenodd" clip-rule="evenodd" width="49.092" height="53.313"/>
	</g>
	<g>
		<defs>
			<path id="SVGID_19_" d="M169.335,74.437c2.673-6.006,4.03-9.005,6.788-14.992c4.917-0.113,7.376-0.154,12.293-0.207
				c-5.422,9.795-8.065,14.712-13.217,24.578c0.154,6.238,0.231,9.357,0.384,15.595c-4.389,0.107-6.583,0.173-10.97,0.33
				c-0.221-6.105-0.332-9.157-0.551-15.262c-5.744-9.67-8.684-14.482-14.699-24.065c4.937-0.245,7.406-0.352,12.344-0.536
				C164.801,65.69,166.327,68.602,169.335,74.437"/>
		</defs>
		<clipPath id="SVGID_20_">
			<use xlink:href="#SVGID_19_"  overflow="visible"/>
		</clipPath>
		<rect x="144.155" y="53" clip-path="url(#SVGID_20_)" fill-rule="evenodd" clip-rule="evenodd" width="49.092" height="53.313"/>
	</g>
	<g>
		<defs>
			<path id="SVGID_21_" d="M272.973,101.883c-0.561-3.046-0.844-4.569-1.419-7.614c-5.269-0.395-7.904-0.575-13.177-0.897
				c-1.005,2.938-1.504,4.408-2.497,7.35c-4.78-0.283-7.172-0.409-11.954-0.633c5.017-13.177,10.209-26.288,15.57-39.331
				c6.048,0.366,9.071,0.57,15.114,1.026c3.595,13.651,7.01,27.349,10.244,41.088C280.103,102.447,277.727,102.249,272.973,101.883
				L272.973,101.883L272.973,101.883z M269.926,85.272c-0.514-2.667-0.773-4-1.297-6.667c-0.31-1.482-0.681-3.398-1.116-5.746
				c-0.435-2.35-0.837-5.043-0.837-5.043c-0.015-0.001-0.675,2.42-1.32,4.512c-0.645,2.092-2.039,6.207-4.138,12.352
				C264.702,84.901,266.444,85.019,269.926,85.272L269.926,85.272L269.926,85.272z M269.926,85.272"/>
		</defs>
		<clipPath id="SVGID_22_">
			<use xlink:href="#SVGID_21_"  overflow="visible"/>
		</clipPath>
		
			<rect x="240.056" y="55.19" clip-path="url(#SVGID_22_)" fill-rule="evenodd" clip-rule="evenodd" width="50.928" height="52.115"/>
	</g>
	<g>
		<defs>
			<path id="SVGID_23_" d="M324.257,107.217c-4.888-0.64-7.333-0.945-12.226-1.523c-2.449-6.441-3.699-9.659-6.251-16.085
				c-1.389,0.617-2.083,0.927-3.468,1.55c-0.569,5.313-0.853,7.97-1.422,13.284c-4.361-0.464-6.541-0.684-10.905-1.098
				c1.266-13.255,2.532-26.508,3.798-39.763c4.546,0.431,6.818,0.66,11.361,1.144c-0.739,6.9-1.109,10.35-1.848,17.25
				c0.676-1.009,1.992-2.582,3.962-4.71c4.007-4.486,6.031-6.718,10.121-11.162c4.938,0.587,7.406,0.895,12.337,1.543
				c-6.202,6.405-9.257,9.631-15.277,16.129C318.484,93.134,320.448,97.823,324.257,107.217"/>
		</defs>
		<clipPath id="SVGID_24_">
			<use xlink:href="#SVGID_23_"  overflow="visible"/>
		</clipPath>
		
			<rect x="283.984" y="58.839" clip-path="url(#SVGID_24_)" fill-rule="evenodd" clip-rule="evenodd" width="49.731" height="53.635"/>
	</g>
	<g>
		<defs>
			<path id="SVGID_25_" d="M379.724,90.567c3.907-5.299,5.881-7.939,9.871-13.201c4.849,0.939,7.272,1.424,12.113,2.423
				c-7.422,8.411-11.069,12.651-18.236,21.191c-1.184,6.127-1.777,9.191-2.96,15.319c-4.33-0.832-6.497-1.234-10.834-2.016
				c1.089-6.011,1.635-9.017,2.725-15.029c-3.564-10.67-5.416-15.999-9.26-26.641c4.89,0.811,7.333,1.232,12.215,2.103
				C377.148,81.054,378.021,84.225,379.724,90.567"/>
		</defs>
		<clipPath id="SVGID_26_">
			<use xlink:href="#SVGID_25_"  overflow="visible"/>
		</clipPath>
		<rect x="356.155" y="67" clip-path="url(#SVGID_26_)" fill-rule="evenodd" clip-rule="evenodd" width="49.092" height="53.313"/>
	</g>
	<g>
		<defs>
			<path id="SVGID_27_" d="M147.87,100.409c-9.563,0.51-14.343,0.824-23.895,1.573c-1.046-13.273-2.093-26.546-3.141-39.82
				c9.951-0.779,14.931-1.106,24.894-1.638c0.186,3.459,0.279,5.189,0.464,8.649c-5.382,0.287-8.072,0.449-13.452,0.809
				c0.169,2.508,0.254,3.761,0.423,6.269c4.949-0.332,7.424-0.482,12.377-0.751c0.189,3.459,0.283,5.189,0.473,8.649
				c-4.908,0.266-7.362,0.415-12.268,0.743c0.203,3.009,0.305,4.514,0.507,7.524c5.257-0.351,7.885-0.51,13.144-0.79
				C147.587,95.138,147.682,96.895,147.87,100.409"/>
		</defs>
		<clipPath id="SVGID_28_">
			<use xlink:href="#SVGID_27_"  overflow="visible"/>
		</clipPath>
		
			<rect x="115.835" y="55.76" clip-path="url(#SVGID_28_)" fill-rule="evenodd" clip-rule="evenodd" width="37.035" height="51.458"/>
	</g>
</g>
<g id="Layer_3">
	<g>
		<defs>
			<path id="SVGID_29_" d="M353.104,111.446c-9.48-1.536-14.227-2.246-23.734-3.545c1.815-13.191,3.629-26.381,5.444-39.572
				c9.904,1.354,14.851,2.092,24.726,3.693c-0.558,3.42-0.837,5.129-1.395,8.548c-5.336-0.865-8.005-1.279-13.348-2.07
				c-0.371,2.485-0.557,3.728-0.928,6.215c4.916,0.729,7.373,1.109,12.282,1.9c-0.555,3.42-0.832,5.129-1.387,8.549
				c-4.866-0.784-7.3-1.16-12.173-1.882c-0.446,2.983-0.668,4.475-1.113,7.459c5.221,0.774,7.83,1.179,13.044,2.023
				C353.955,106.237,353.672,107.974,353.104,111.446"/>
		</defs>
		<clipPath id="SVGID_30_">
			<use xlink:href="#SVGID_29_"  overflow="visible"/>
		</clipPath>
		<rect x="323.37" y="64" clip-path="url(#SVGID_30_)" fill-rule="evenodd" clip-rule="evenodd" width="40.17" height="53.117"/>
	</g>
</g>
</svg>
